<svg width="50" height="50" viewBox="0 0 50 50" fill="none" xmlns="http://www.w3.org/2000/svg">
<path d="M42.3985 44.0078L37.9845 48.4453C37.8595 48.5703 37.9688 48.8359 38.1251 48.8047L43.1251 47.8516L44.2892 47.6328L49.2892 46.6797C49.4454 46.6484 49.4454 46.3594 49.2892 46.2891L43.5548 43.7812L42.3985 44.0078Z" fill="white"/>
<path d="M40.7109 31.125C45.7891 30.1562 49.125 25.2578 48.1562 20.1797L45.3203 5.25781C45.3125 5.23438 45.2891 5.21875 45.2656 5.21875L26.9609 8.70313C26.9375 8.71094 26.9219 8.73438 26.9219 8.75781L29.7578 23.6797C30.7344 28.75 35.6328 32.0859 40.7109 31.125Z" fill="white"/>
<path d="M28.5156 17.1012L29.7656 23.6793C30.7344 28.7574 35.6328 32.0934 40.7109 31.1246C45.7891 30.1559 49.125 25.2574 48.1562 20.1793L46.9062 13.6012C37.7656 10.023 34.2188 23.5855 28.5156 17.1012Z" fill="#051839"/>
<path d="M7.60156 44.0078L12.0156 48.4453C12.1406 48.5703 12.0312 48.8359 11.875 48.8047L6.875 47.8516L5.70312 47.6328L0.703125 46.6797C0.546875 46.6484 0.546875 46.3594 0.703125 46.2891L6.4375 43.7812L7.60156 44.0078Z" fill="white"/>
<path d="M9.28894 31.125C4.21081 30.1562 0.874877 25.2578 1.84363 20.1797L4.67956 5.25781C4.67956 5.23438 4.703 5.21875 4.72644 5.21875L23.0311 8.70313C23.0546 8.71094 23.0702 8.73438 23.0702 8.75781L20.2343 23.6719C19.2655 28.75 14.3671 32.0859 9.28894 31.125Z" fill="white"/>
<path d="M21.4843 17.1012L20.2343 23.6793C19.2655 28.7574 14.3671 32.0934 9.28894 31.1246C4.21081 30.1559 0.874876 25.2574 1.84363 20.1793L3.09363 13.6012C12.2343 10.023 15.7811 23.5855 21.4843 17.1012Z" fill="#051839"/>
<path d="M41.1293 31.0458L39.978 31.2646L42.4003 44.0052L43.5516 43.7863L41.1293 31.0458Z" fill="white"/>
<path d="M8.86495 31.0422L6.4502 43.7842L7.60158 44.0024L10.0163 31.2604L8.86495 31.0422Z" fill="white"/>
<path d="M24.9998 0.609375C24.6795 0.609375 24.4139 0.875 24.4139 1.19531V4.82812C24.4139 5.14844 24.6795 5.41406 24.9998 5.41406C25.3201 5.41406 25.5858 5.14844 25.5858 4.82812V1.19531C25.5858 0.867188 25.3201 0.609375 24.9998 0.609375ZM28.7733 2.50781C28.4842 2.36719 28.1326 2.48438 27.992 2.77344L26.4764 5.85938C26.3358 6.14844 26.453 6.5 26.742 6.64062C26.828 6.67969 26.9139 6.70312 26.9998 6.70312C27.2186 6.70312 27.4217 6.58594 27.5233 6.375L29.0389 3.28906C29.1873 3 29.0701 2.64844 28.7733 2.50781ZM22.0076 2.77344C21.867 2.48438 21.5155 2.35938 21.2264 2.50781C20.9373 2.64844 20.8123 3 20.9608 3.28906L22.4764 6.375C22.578 6.58594 22.7889 6.70312 22.9998 6.70312C23.0858 6.70312 23.1717 6.6875 23.2576 6.64062C23.5467 6.5 23.6717 6.14844 23.5233 5.85938L22.0076 2.77344Z" fill="#D8D7D7"/>
</svg>
