<svg width="50" height="50" viewBox="0 0 50 50" fill="none" xmlns="http://www.w3.org/2000/svg">
<path d="M49.156 18.9063L36.4998 6.57813C36.4271 6.50491 36.3407 6.44679 36.2455 6.40712C36.1503 6.36746 36.0482 6.34704 35.9451 6.34704C35.8419 6.34704 35.7398 6.36746 35.6446 6.40712C35.5494 6.44679 35.463 6.50491 35.3904 6.57813L30.4529 11.6563C30.3797 11.7289 30.3215 11.8153 30.2819 11.9105C30.2422 12.0057 30.2218 12.1078 30.2218 12.2109C30.2218 12.3141 30.2422 12.4162 30.2819 12.5114C30.3215 12.6066 30.3797 12.693 30.4529 12.7656L32.6873 14.9375C30.8673 14.2174 28.8496 14.173 26.9998 14.8125L26.3904 15.0625C26.1354 15.1786 25.8898 15.3144 25.656 15.4688C25.3998 15.5979 25.1588 15.7551 24.9373 15.9375C24.8212 16.0117 24.7114 16.0953 24.6091 16.1875L23.4373 17.1875L21.406 15.7344C19.9939 14.7281 18.2767 14.2422 16.5466 14.3594L18.6404 11.7188C18.7699 11.5588 18.8311 11.3542 18.8106 11.1494C18.7901 10.9446 18.6896 10.7562 18.531 10.625L13.0623 6.14063C12.9854 6.07477 12.8958 6.0255 12.799 5.99592C12.7022 5.96634 12.6003 5.9571 12.4998 5.96876C12.3943 5.9762 12.2915 6.00497 12.1975 6.05331C12.1035 6.10165 12.0203 6.16857 11.9529 6.25001L0.781017 19.9531C0.651498 20.1131 0.590333 20.3177 0.610813 20.5225C0.631293 20.7273 0.731762 20.9157 0.890392 21.0469L6.35914 25.5156C6.5191 25.6452 6.72371 25.7063 6.92851 25.6858C7.1333 25.6654 7.32175 25.5649 7.45289 25.4063L8.06227 24.6563C7.89843 27.4662 8.65545 30.2529 10.2185 32.5938C10.0226 33.0617 9.96993 33.5773 10.0673 34.0752C10.1646 34.5731 10.4076 35.0309 10.7654 35.3906L10.8591 35.4844H10.9373C11.4081 35.9492 12.0413 36.2126 12.7029 36.2188C12.7116 36.8829 12.9809 37.517 13.4529 37.9844L13.5466 38.0781C14.014 38.5501 14.6481 38.8195 15.3123 38.8281C15.2951 39.4915 15.536 40.1356 15.9841 40.625L16.0623 40.7031C16.5331 41.168 17.1663 41.4313 17.8279 41.4375C17.8366 42.1017 18.1059 42.7358 18.5779 43.2031L18.6716 43.2969C18.9092 43.5355 19.1917 43.7246 19.5028 43.8534C19.8139 43.9821 20.1474 44.0479 20.4841 44.0469C20.8207 44.047 21.154 43.9809 21.465 43.8522C21.776 43.7235 22.0586 43.5348 22.2966 43.2969L24.1404 41.4531C24.9055 41.5726 25.6785 41.6352 26.4529 41.6406C28.9795 41.6374 31.4693 41.0353 33.7182 39.8837C35.9671 38.7321 37.911 37.0638 39.3904 35.0156L39.7654 34.4844C40.2566 33.8144 40.5506 33.0203 40.6141 32.1919C40.6776 31.3636 40.5081 30.534 40.1248 29.7969C41.286 27.8924 41.7705 25.6517 41.4998 23.4375L43.0623 25C43.209 25.1415 43.4053 25.22 43.6091 25.2188C43.8152 25.2158 44.0118 25.1316 44.156 24.9844L49.0935 19.9219C49.2235 19.788 49.3013 19.6119 49.3128 19.4256C49.3242 19.2393 49.2686 19.0551 49.156 18.9063ZM23.656 18.9063C23.7708 18.879 23.8778 18.8255 23.9685 18.75L25.531 17.4375L25.781 17.25C25.9567 17.1157 26.1393 16.9905 26.3279 16.875L26.8279 16.5938L27.5154 16.2969C27.5903 16.2613 27.6589 16.2138 27.7185 16.1563C28.9615 15.7506 30.2976 15.7273 31.554 16.0894C32.8103 16.4516 33.9291 17.1825 34.7654 18.1875L34.906 18.3906C35.3236 18.8688 35.564 19.4762 35.5868 20.1106C35.6095 20.7451 35.4133 21.3681 35.031 21.875C34.7071 22.3842 34.2303 22.7779 33.6689 22.9996C33.1076 23.2213 32.4905 23.2598 31.906 23.1094H31.8123C31.3079 22.9518 30.8689 22.6335 30.5623 22.2031C30.5345 22.1639 30.5031 22.1273 30.4685 22.0938L30.3279 21.875L28.4841 19.6094C28.353 19.4508 28.1646 19.3503 27.9598 19.3298C27.755 19.3093 27.5504 19.3705 27.3904 19.5L22.2966 23.6563C22.0798 23.8314 21.8158 23.9382 21.5381 23.963C21.2604 23.9878 20.9817 23.9296 20.7372 23.7956C20.4927 23.6616 20.2936 23.458 20.1651 23.2107C20.0365 22.9633 19.9844 22.6833 20.0154 22.4063C20.0343 22.2235 20.0897 22.0463 20.1783 21.8853C20.2668 21.7243 20.3868 21.5826 20.531 21.4688L23.656 18.9063ZM6.74977 23.8281L2.48414 20.3125L12.6716 7.81251L16.9216 11.2969L13.9685 14.9531C12.7157 15.4889 11.6345 16.3593 10.8435 17.4688L10.4685 18C9.71386 19.0559 9.12381 20.2202 8.71852 21.4531L6.74977 23.8281ZM13.3748 34.375C13.1876 34.5601 12.9349 34.6639 12.6716 34.6639C12.4084 34.6639 12.1557 34.5601 11.9685 34.375L11.4216 34.9219L11.8748 34.375C11.6897 34.1878 11.5858 33.9352 11.5858 33.6719C11.5858 33.4086 11.6897 33.156 11.8748 32.9688L14.7654 30.0625C14.9174 29.9127 15.1223 29.8287 15.3357 29.8287C15.5491 29.8287 15.754 29.9127 15.906 30.0625L16.2654 30.4219C16.3415 30.4961 16.4019 30.5848 16.4432 30.6828C16.4845 30.7807 16.5057 30.8859 16.5057 30.9922C16.5057 31.0985 16.4845 31.2037 16.4432 31.3016C16.4019 31.3996 16.3415 31.4883 16.2654 31.5625L13.3748 34.375ZM15.9841 36.9688C15.7982 37.1568 15.5454 37.2635 15.281 37.2656C15.15 37.2655 15.0203 37.2391 14.8995 37.1881C14.7788 37.1371 14.6694 37.0626 14.5779 36.9688L14.4841 36.875C14.2961 36.6891 14.1894 36.4363 14.1873 36.1719C14.1875 36.0408 14.2138 35.9111 14.2648 35.7904C14.3158 35.6696 14.3903 35.5603 14.4841 35.4688L17.3748 32.5625C17.449 32.4864 17.5377 32.426 17.6356 32.3847C17.7336 32.3435 17.8388 32.3222 17.9451 32.3222C18.0514 32.3222 18.1566 32.3435 18.2545 32.3847C18.3525 32.426 18.4412 32.4864 18.5154 32.5625L18.8748 32.9219C19.0246 33.0739 19.1086 33.2788 19.1086 33.4922C19.1086 33.7056 19.0246 33.9105 18.8748 34.0625L15.9841 36.9688ZM18.5935 39.5625C18.4063 39.7476 18.1537 39.8514 17.8904 39.8514C17.6271 39.8514 17.3745 39.7476 17.1873 39.5625L16.6404 40.1094L17.1091 39.4688C16.924 39.2816 16.8202 39.0289 16.8202 38.7656C16.8202 38.5024 16.924 38.2497 17.1091 38.0625L19.9998 35.1563C20.1488 35.0067 20.3511 34.9224 20.5623 34.9219C20.7734 34.9224 20.9757 35.0067 21.1248 35.1563L21.4841 35.5156C21.5602 35.5899 21.6207 35.6786 21.6619 35.7765C21.7032 35.8745 21.7245 35.9797 21.7245 36.0859C21.7245 36.1922 21.7032 36.2974 21.6619 36.3954C21.6207 36.4933 21.5602 36.582 21.4841 36.6563L18.5935 39.5625ZM24.0935 39.2656L21.1873 42.1875C21.0001 42.3726 20.7474 42.4764 20.4841 42.4764C20.2209 42.4764 19.9682 42.3726 19.781 42.1875L19.6873 42.0938C19.5022 41.9066 19.3983 41.6539 19.3983 41.3906C19.3983 41.1274 19.5022 40.8747 19.6873 40.6875L22.5779 37.7813C22.6521 37.7052 22.7408 37.6447 22.8388 37.6035C22.9367 37.5622 23.0419 37.5409 23.1482 37.5409C23.2545 37.5409 23.3597 37.5622 23.4576 37.6035C23.5556 37.6447 23.6443 37.7052 23.7185 37.7813L24.0779 38.1406C24.154 38.2149 24.2144 38.3036 24.2557 38.4015C24.297 38.4995 24.3182 38.6047 24.3182 38.7109C24.3182 38.8172 24.297 38.9224 24.2557 39.0204C24.2144 39.1183 24.154 39.207 24.0779 39.2813L24.0935 39.2656ZM38.4998 33.5469L38.3123 33.8281L34.3748 31.125C34.291 31.0601 34.1949 31.0128 34.0922 30.9862C33.9896 30.9596 33.8827 30.9542 33.7779 30.9702C33.6731 30.9863 33.5726 31.0235 33.4827 31.0796C33.3927 31.1357 33.3151 31.2095 33.2546 31.2965C33.1941 31.3836 33.152 31.4821 33.1307 31.5859C33.1095 31.6898 33.1096 31.7969 33.1311 31.9007C33.1525 32.0045 33.1949 32.1029 33.2556 32.1898C33.3163 32.2767 33.3941 32.3504 33.4841 32.4063L35.3591 33.7031C35.4304 33.7762 35.5154 33.8346 35.6091 33.875L37.3123 35.0625C36.8062 35.6539 36.2522 36.2027 35.656 36.7031L31.5935 33.8906C31.5097 33.8257 31.4136 33.7785 31.311 33.7519C31.2084 33.7252 31.1014 33.7198 30.9966 33.7358C30.8918 33.7519 30.7914 33.7891 30.7014 33.8452C30.6115 33.9013 30.5339 33.9751 30.4734 34.0622C30.4129 34.1492 30.3707 34.2477 30.3495 34.3515C30.3282 34.4554 30.3283 34.5625 30.3498 34.6663C30.3713 34.7701 30.4137 34.8685 30.4744 34.9554C30.5351 35.0423 30.6128 35.116 30.7029 35.1719L34.3748 37.6719C33.5733 38.2089 32.7201 38.6643 31.8279 39.0313L28.1248 36.4688C28.041 36.4038 27.9449 36.3566 27.8422 36.33C27.7396 36.3034 27.6327 36.2979 27.5279 36.314C27.4231 36.33 27.3226 36.3672 27.2327 36.4233C27.1427 36.4794 27.0651 36.5533 27.0046 36.6403C26.9441 36.7273 26.902 36.8258 26.8807 36.9297C26.8595 37.0335 26.8596 37.1406 26.8811 37.2444C26.9025 37.3483 26.9449 37.4466 27.0056 37.5335C27.0663 37.6205 27.1441 37.6941 27.2341 37.75L29.9373 39.625C28.481 39.9779 26.9782 40.0992 25.4841 39.9844C25.787 39.537 25.9261 38.9986 25.8777 38.4605C25.8293 37.9223 25.5964 37.4174 25.2185 37.0313L24.8591 36.6719C24.4417 36.2589 23.8836 36.0189 23.2966 36C23.272 35.4113 23.0266 34.8534 22.6091 34.4375L22.2498 34.0781C21.8339 33.6607 21.276 33.4152 20.6873 33.3906C20.6669 32.804 20.4271 32.2465 20.0154 31.8281L19.656 31.4688C19.2401 31.0513 18.6823 30.8059 18.0935 30.7813C18.0731 30.1947 17.8333 29.6371 17.4216 29.2188L17.0623 28.8594C16.8409 28.6264 16.5743 28.441 16.2787 28.3147C15.9832 28.1885 15.6649 28.1239 15.3435 28.125C15.0332 28.1232 14.7256 28.1831 14.4386 28.3011C14.1516 28.4191 13.8909 28.5929 13.6716 28.8125L11.2498 31.25C10.423 29.8766 9.89546 28.3442 9.7016 26.7529C9.50774 25.1616 9.65194 23.5474 10.1248 22.0156C10.4799 20.8991 11.0071 19.8447 11.6873 18.8906L12.0623 18.3594C12.7271 17.4271 13.6506 16.7101 14.7185 16.2969C15.6478 15.9331 16.6532 15.807 17.6436 15.9297C18.6339 16.0525 19.578 16.4204 20.3904 17L22.0779 18.2031L19.531 20.3125C19.228 20.5546 18.9765 20.8549 18.7913 21.1957C18.6062 21.5365 18.4911 21.9109 18.4529 22.2969C18.4096 22.6871 18.4442 23.0821 18.5546 23.4589C18.665 23.8356 18.8491 24.1868 19.0961 24.492C19.3432 24.7971 19.6483 25.0503 19.9938 25.2367C20.3394 25.4231 20.7184 25.5392 21.1091 25.5781H21.4216C22.089 25.6012 22.7444 25.3974 23.281 25L27.7654 21.3438L29.1404 23.0313L29.3435 23.25C29.7328 23.7458 30.2297 24.1465 30.7966 24.4219C30.8235 24.4667 30.8549 24.5086 30.8904 24.5469L31.0779 24.6719L37.7498 29.4844C38.0495 29.6983 38.3044 29.9691 38.4998 30.2813C38.828 30.7661 39.0021 31.3388 38.9993 31.9243C38.9965 32.5098 38.817 33.0808 38.4841 33.5625L38.4998 33.5469ZM39.0623 28.5313C38.9432 28.4153 38.818 28.3058 38.6873 28.2031L33.7185 24.625C34.7521 24.326 35.6514 23.6805 36.2654 22.7969C36.6507 22.2679 36.9102 21.6579 37.0239 21.0135C37.1377 20.369 37.1027 19.707 36.9216 19.0781L39.281 21.375C39.7801 22.5088 40.0194 23.7397 39.9816 24.9779C39.9437 26.2161 39.6296 27.4301 39.0623 28.5313ZM43.6716 23.4375L32.1248 12.1875L35.9373 8.23438L47.4841 19.4844L43.6716 23.4375Z" fill="white"/>
<path d="M7.40588 17.1873L5.43713 19.7029C5.37249 19.783 5.32425 19.8749 5.29516 19.9736C5.26607 20.0723 5.2567 20.1757 5.26758 20.278C5.27846 20.3803 5.30938 20.4794 5.35858 20.5698C5.40778 20.6601 5.47429 20.7399 5.55431 20.8045C5.63434 20.8691 5.72631 20.9174 5.82498 20.9465C5.92364 20.9755 6.02708 20.9849 6.12937 20.974C6.33595 20.9521 6.52534 20.8489 6.65588 20.6873L8.62463 18.2342C8.76345 18.0726 8.83239 17.8624 8.81627 17.65C8.80015 17.4375 8.70031 17.2402 8.53869 17.1014C8.45866 17.0326 8.36588 16.9803 8.26565 16.9474C8.16541 16.9146 8.05968 16.9017 7.95448 16.9097C7.74204 16.9258 7.5447 17.0257 7.40588 17.1873ZM34.5621 10.7342C34.4889 10.8068 34.4308 10.8932 34.3911 10.9884C34.3515 11.0836 34.331 11.1857 34.331 11.2889C34.331 11.392 34.3515 11.4941 34.3911 11.5893C34.4308 11.6845 34.4889 11.7709 34.5621 11.8436L36.8434 14.0623C36.9955 14.1878 37.1894 14.2511 37.3862 14.2396C37.583 14.2281 37.7682 14.1426 37.9047 14.0003C38.0411 13.8579 38.1186 13.6692 38.1218 13.4721C38.1249 13.2749 38.0533 13.0839 37.9215 12.9373L35.6559 10.7498C35.5119 10.6046 35.3167 10.5216 35.1122 10.5186C34.9077 10.5157 34.7102 10.5931 34.5621 10.7342Z" fill="white"/>
</svg>
