<svg width="50" height="50" viewBox="0 0 50 50" fill="none" xmlns="http://www.w3.org/2000/svg">
<path d="M24.8047 7.8125C24.5975 7.8125 24.3988 7.89481 24.2523 8.04132C24.1057 8.18784 24.0234 8.38655 24.0234 8.59375V9.39375C23.7986 9.47159 23.5784 9.56237 23.3641 9.66562L22.8 9.10313C22.6535 8.95666 22.4548 8.87439 22.2477 8.87439C22.0405 8.87439 21.8418 8.95666 21.6953 9.10313L20.0391 10.7594C19.9663 10.8319 19.9086 10.9182 19.8692 11.0131C19.8298 11.108 19.8095 11.2097 19.8095 11.3125C19.8095 11.4153 19.8298 11.517 19.8692 11.6119C19.9086 11.7068 19.9663 11.7931 20.0391 11.8656L20.6016 12.4297C20.4986 12.6429 20.4084 12.8621 20.3313 13.0859H19.5312C19.324 13.0859 19.1253 13.1682 18.9788 13.3148C18.8323 13.4613 18.75 13.66 18.75 13.8672V16.2109C18.75 16.4181 18.8323 16.6169 18.9788 16.7634C19.1253 16.9099 19.324 16.9922 19.5312 16.9922H20.3313C20.4094 17.2188 20.4984 17.4359 20.6031 17.6516L20.0375 18.2156C19.891 18.3621 19.8088 18.5608 19.8088 18.768C19.8088 18.9751 19.891 19.1738 20.0375 19.3203L21.6937 20.9766C21.7663 21.0493 21.8525 21.107 21.9474 21.1464C22.0424 21.1858 22.1441 21.2061 22.2469 21.2061C22.3496 21.2061 22.4514 21.1858 22.5463 21.1464C22.6412 21.107 22.7274 21.0493 22.8 20.9766L23.3641 20.4141C23.5797 20.5172 23.7969 20.6094 24.0234 20.6875V21.4844C24.0234 21.6916 24.1057 21.8903 24.2523 22.0368C24.3988 22.1833 24.5975 22.2656 24.8047 22.2656H27.1484C27.3556 22.2656 27.5544 22.1833 27.7009 22.0368C27.8474 21.8903 27.9297 21.6916 27.9297 21.4844V20.6844C28.1547 20.6062 28.375 20.5203 28.5891 20.4156L29.1531 20.9781C29.2996 21.1246 29.4983 21.2069 29.7055 21.2069C29.9126 21.2069 30.1113 21.1246 30.2578 20.9781L31.9141 19.3219C31.9868 19.2493 32.0445 19.1631 32.0839 19.0682C32.1233 18.9733 32.1436 18.8715 32.1436 18.7688C32.1436 18.666 32.1233 18.5642 32.0839 18.4693C32.0445 18.3744 31.9868 18.2882 31.9141 18.2156L31.3516 17.6516C31.4547 17.4359 31.5469 17.2188 31.625 16.9922H32.4219C32.6291 16.9922 32.8278 16.9099 32.9743 16.7634C33.1208 16.6169 33.2031 16.4181 33.2031 16.2109V13.8672C33.2031 13.66 33.1208 13.4613 32.9743 13.3148C32.8278 13.1682 32.6291 13.0859 32.4219 13.0859H31.6219C31.5454 12.861 31.4557 12.6408 31.3531 12.4266L31.9156 11.8641C32.0616 11.7176 32.1436 11.5193 32.1436 11.3125C32.1436 11.1057 32.0616 10.9074 31.9156 10.7609L30.2594 9.10469C30.1868 9.03193 30.1006 8.97421 30.0057 8.93482C29.9108 8.89544 29.809 8.87517 29.7062 8.87517C29.6035 8.87517 29.5017 8.89544 29.4068 8.93482C29.3119 8.97421 29.2257 9.03193 29.1531 9.10469L28.5891 9.66719C28.3749 9.56295 28.1547 9.47165 27.9297 9.39375V8.59375C27.9297 8.38655 27.8474 8.18784 27.7009 8.04132C27.5544 7.89481 27.3556 7.8125 27.1484 7.8125H24.8047ZM25.5859 9.375H26.3672V9.90312C26.367 10.0803 26.4271 10.2523 26.5375 10.3908C26.648 10.5294 26.8022 10.6263 26.975 10.6656C27.4672 10.7781 27.9391 10.975 28.3656 11.2438C28.5157 11.3378 28.6934 11.3781 28.8694 11.358C29.0455 11.3378 29.2094 11.2584 29.3344 11.1328L29.7062 10.7609L30.2578 11.3125L29.8891 11.6828C29.7643 11.8073 29.6854 11.9702 29.6649 12.1453C29.6445 12.3203 29.6839 12.497 29.7766 12.6469C30.0422 13.075 30.2391 13.5484 30.35 14.0406C30.3892 14.2129 30.4856 14.3667 30.6236 14.4771C30.7615 14.5875 30.9327 14.6479 31.1094 14.6484H31.6406V15.4297H31.1125C30.9351 15.4296 30.763 15.4899 30.6244 15.6006C30.4858 15.7114 30.389 15.866 30.35 16.0391C30.2386 16.5316 30.0447 17.0018 29.7766 17.4297C29.6831 17.5793 29.643 17.7562 29.6628 17.9316C29.6827 18.1069 29.7613 18.2704 29.8859 18.3953L30.2578 18.7688L29.7062 19.3203L29.3359 18.9516C29.2109 18.8266 29.0471 18.7477 28.8715 18.7278C28.6958 18.708 28.5186 18.7483 28.3687 18.8422C27.9405 19.109 27.4704 19.3018 26.9781 19.4125C26.8048 19.4512 26.6498 19.5479 26.5387 19.6865C26.4277 19.8251 26.3672 19.9974 26.3672 20.175V20.7031H25.5859V20.175C25.5854 19.9984 25.525 19.8271 25.4146 19.6892C25.3042 19.5513 25.1504 19.4548 24.9781 19.4156C24.4855 19.3022 24.0154 19.1067 23.5875 18.8375C23.4374 18.7434 23.2597 18.7031 23.0837 18.7233C22.9077 18.7434 22.7437 18.8228 22.6187 18.9484L22.2469 19.3203L21.6953 18.7688L22.0672 18.3984C22.1922 18.2734 22.271 18.1096 22.2909 17.934C22.3108 17.7583 22.2705 17.5811 22.1766 17.4313C21.9096 17.0031 21.7168 16.5329 21.6062 16.0406C21.5675 15.8673 21.4709 15.7123 21.3323 15.6012C21.1937 15.4902 21.0214 15.4297 20.8438 15.4297H20.3125V14.6484H20.8406C21.0178 14.6486 21.1898 14.5885 21.3283 14.4781C21.4669 14.3677 21.5638 14.2134 21.6031 14.0406C21.7156 13.5484 21.9094 13.0797 22.1766 12.6531C22.2709 12.5032 22.3114 12.3256 22.2915 12.1496C22.2716 11.9736 22.1925 11.8095 22.0672 11.6844L21.6953 11.3125L22.2469 10.7609L22.6203 11.1297C22.7452 11.2539 22.9083 11.3323 23.0833 11.3522C23.2583 11.372 23.4349 11.3322 23.5844 11.2391C24.0125 10.9734 24.4828 10.7797 24.975 10.6688C25.1483 10.63 25.3033 10.5334 25.4144 10.3948C25.5254 10.2562 25.5859 10.0839 25.5859 9.90625V9.375ZM25.9766 12.4688C24.5656 12.4688 23.4047 13.6281 23.4047 15.0391C23.4047 16.45 24.5656 17.6109 25.9766 17.6109C27.3875 17.6109 28.5484 16.45 28.5484 15.0391C28.5484 13.6281 27.3875 12.4688 25.9766 12.4688ZM25.9766 14.0312C26.2441 14.0312 26.5006 14.1375 26.6897 14.3267C26.8789 14.5158 26.9852 14.7723 26.9852 15.0398C26.9852 15.3073 26.8789 15.5639 26.6897 15.753C26.5006 15.9422 26.2441 16.0484 25.9766 16.0484C25.7091 16.0484 25.4525 15.9422 25.2634 15.753C25.0742 15.5639 24.968 15.3073 24.968 15.0398C24.968 14.7723 25.0742 14.5158 25.2634 14.3267C25.4525 14.1375 25.7091 14.0312 25.9766 14.0312ZM11.9844 18.0234C11.7772 18.0234 11.5785 18.1057 11.4319 18.2523C11.2854 18.3988 11.2031 18.5975 11.2031 18.8047V19.6047C10.9781 19.6809 10.7579 19.7706 10.5438 19.8734L9.98125 19.3109C9.83481 19.165 9.63646 19.083 9.42969 19.083C9.22291 19.083 9.02457 19.165 8.87813 19.3109L7.22188 20.9672C7.14912 21.0398 7.0914 21.126 7.05201 21.2209C7.01263 21.3158 6.99235 21.4176 6.99235 21.5203C6.99235 21.6231 7.01263 21.7248 7.05201 21.8197C7.0914 21.9147 7.14912 22.0009 7.22188 22.0734L7.78437 22.6375C7.68024 22.8517 7.58893 23.0719 7.51094 23.2969H6.71094C6.50374 23.2969 6.30502 23.3792 6.15851 23.5257C6.012 23.6722 5.92969 23.8709 5.92969 24.0781V26.4219C5.92969 26.6291 6.012 26.8278 6.15851 26.9743C6.30502 27.1208 6.50374 27.2031 6.71094 27.2031H7.51094C7.58906 27.4281 7.67812 27.6484 7.78125 27.8625L7.22031 28.425C7.14756 28.4976 7.08983 28.5838 7.05045 28.6787C7.01106 28.7736 6.99079 28.8754 6.99079 28.9781C6.99079 29.0809 7.01106 29.1826 7.05045 29.2776C7.08983 29.3725 7.14756 29.4587 7.22031 29.5312L8.87656 31.1875C8.94913 31.2603 9.03535 31.318 9.13026 31.3574C9.22517 31.3967 9.32693 31.417 9.42969 31.417C9.53245 31.417 9.6342 31.3967 9.72911 31.3574C9.82403 31.318 9.91024 31.2603 9.98281 31.1875L10.5469 30.625C10.7609 30.7281 10.9781 30.8188 11.2031 30.8953V31.6953C11.2031 31.9025 11.2854 32.1012 11.4319 32.2477C11.5785 32.3943 11.7772 32.4766 11.9844 32.4766H14.3281C14.5353 32.4766 14.734 32.3943 14.8806 32.2477C15.0271 32.1012 15.1094 31.9025 15.1094 31.6953V30.8953C15.3342 30.818 15.5543 30.7277 15.7688 30.625L16.3328 31.1875C16.4793 31.334 16.678 31.4162 16.8852 31.4162C17.0923 31.4162 17.291 31.334 17.4375 31.1875L19.0938 29.5312C19.1667 29.4587 19.2247 29.3723 19.2642 29.2773C19.3037 29.1822 19.3241 29.0803 19.3241 28.9773C19.3241 28.8744 19.3037 28.7725 19.2642 28.6774C19.2247 28.5823 19.1667 28.496 19.0938 28.4234L18.5328 27.8625C18.6375 27.6484 18.7266 27.4281 18.8047 27.2031H19.6016C19.8088 27.2031 20.0075 27.1208 20.154 26.9743C20.3005 26.8278 20.3828 26.6291 20.3828 26.4219V24.0781C20.3828 23.8709 20.3005 23.6722 20.154 23.5257C20.0075 23.3792 19.8088 23.2969 19.6016 23.2969H18.8016C18.724 23.0719 18.6333 22.8517 18.5297 22.6375L19.0953 22.0734C19.2418 21.9269 19.3241 21.7283 19.3241 21.5211C19.3241 21.3139 19.2418 21.1153 19.0953 20.9688L17.4391 19.3125C17.3665 19.2397 17.2803 19.182 17.1854 19.1426C17.0905 19.1033 16.9887 19.083 16.8859 19.083C16.7832 19.083 16.6814 19.1033 16.5865 19.1426C16.4916 19.182 16.4054 19.2397 16.3328 19.3125L15.7688 19.875C15.5546 19.7708 15.3344 19.6795 15.1094 19.6016V18.8047C15.1094 18.5975 15.0271 18.3988 14.8806 18.2523C14.734 18.1057 14.5353 18.0234 14.3281 18.0234H11.9844ZM12.7656 19.5859H13.5469V20.1141C13.5474 20.2907 13.6078 20.462 13.7182 20.5999C13.8286 20.7378 13.9824 20.8342 14.1547 20.8734C14.6469 20.9859 15.1172 21.1828 15.5453 21.4516C15.6953 21.5459 15.8728 21.5864 16.0488 21.5665C16.2249 21.5466 16.3889 21.4675 16.5141 21.3422L16.8859 20.9672L17.4375 21.5203L17.0687 21.8906C16.9438 22.0157 16.8649 22.1794 16.845 22.3551C16.8252 22.5308 16.8655 22.708 16.9594 22.8578C17.225 23.2859 17.4187 23.7563 17.5297 24.2484C17.5684 24.4218 17.665 24.5768 17.8036 24.6878C17.9423 24.7989 18.1146 24.8594 18.2922 24.8594H18.8203V25.6406H18.2922C18.1155 25.6412 17.9443 25.7016 17.8064 25.8119C17.6685 25.9223 17.572 26.0762 17.5328 26.2484C17.4197 26.7407 17.2242 27.2103 16.9547 27.6375C16.8604 27.7875 16.8199 27.965 16.8397 28.141C16.8596 28.317 16.9387 28.4811 17.0641 28.6063L17.4391 28.9766L16.8859 29.5281L16.5156 29.1594C16.3906 29.0344 16.2268 28.9555 16.0511 28.9357C15.8755 28.9158 15.6982 28.9561 15.5484 29.05C15.1202 29.3169 14.6501 29.5097 14.1578 29.6203C13.9845 29.659 13.8295 29.7557 13.7184 29.8943C13.6074 30.0329 13.5469 30.2052 13.5469 30.3828V30.9141H12.7656V30.3859C12.7658 30.2088 12.7057 30.0368 12.5953 29.8982C12.4848 29.7597 12.3306 29.6628 12.1578 29.6234C11.6664 29.5116 11.1973 29.3178 10.7703 29.05C10.6207 28.9553 10.4433 28.9143 10.2673 28.9336C10.0913 28.9529 9.9271 29.0314 9.80156 29.1562L9.42969 29.5281L8.87813 28.9734L9.24688 28.6047C9.37148 28.4797 9.45011 28.3163 9.46997 28.1409C9.48983 27.9656 9.44975 27.7887 9.35625 27.6391C9.08932 27.2109 8.89651 26.7407 8.78594 26.2484C8.74691 26.0754 8.65015 25.9208 8.51157 25.81C8.37299 25.6993 8.20084 25.639 8.02344 25.6391H7.49219V24.8578H8.02031C8.19771 24.8579 8.36986 24.7976 8.50844 24.6869C8.64702 24.5761 8.74378 24.4215 8.78281 24.2484C8.89531 23.7563 9.0875 23.2859 9.35625 22.8578C9.45094 22.7082 9.492 22.5308 9.47269 22.3548C9.45339 22.1788 9.37487 22.0146 9.25 21.8891L8.87813 21.5172L9.42969 20.9656L9.79844 21.3344C9.92338 21.459 10.0868 21.5376 10.2622 21.5575C10.4375 21.5773 10.6144 21.5373 10.7641 21.4438C11.1922 21.1781 11.6625 20.9844 12.1547 20.8734C12.3277 20.8344 12.4824 20.7376 12.5931 20.5991C12.7039 20.4605 12.7642 20.2883 12.7641 20.1109V19.5859H12.7656ZM30.325 22.2656C30.1178 22.2656 29.9191 22.3479 29.7726 22.4944C29.6261 22.641 29.5438 22.8397 29.5438 23.0469V24.4453C29.0594 24.5953 28.5937 24.7844 28.1437 25.0187L27.1594 24.0391C27.0129 23.8931 26.8146 23.8111 26.6078 23.8111C26.401 23.8111 26.2027 23.8931 26.0563 24.0391L23.6453 26.4453C23.5726 26.5179 23.5148 26.6041 23.4754 26.699C23.4361 26.7939 23.4158 26.8957 23.4158 26.9984C23.4158 27.1012 23.4361 27.203 23.4754 27.2979C23.5148 27.3928 23.5726 27.479 23.6453 27.5516L24.6297 28.5359C24.3953 28.9875 24.1984 29.4531 24.0484 29.9375H22.6562C22.449 29.9375 22.2503 30.0198 22.1038 30.1663C21.9573 30.3128 21.875 30.5115 21.875 30.7188V34.1281C21.875 34.3353 21.9573 34.534 22.1038 34.6806C22.2503 34.8271 22.449 34.9094 22.6562 34.9094H24.0516C24.2016 35.3937 24.3937 35.8625 24.6281 36.3125L23.6437 37.2969C23.4978 37.4433 23.4158 37.6417 23.4158 37.8484C23.4158 38.0552 23.4978 38.2536 23.6437 38.4L26.0563 40.8078C26.2028 40.9543 26.4014 41.0366 26.6086 41.0366C26.8158 41.0366 27.0144 40.9543 27.1609 40.8078L28.1453 39.825C28.5953 40.0594 29.0609 40.2516 29.5438 40.4031V41.7969C29.5438 42.0041 29.6261 42.2028 29.7726 42.3493C29.9191 42.4958 30.1178 42.5781 30.325 42.5781H33.7375C33.9447 42.5781 34.1434 42.4958 34.2899 42.3493C34.4364 42.2028 34.5187 42.0041 34.5187 41.7969V40.4016C35.0031 40.2516 35.4688 40.0625 35.9188 39.8281L36.9031 40.8078C37.0496 40.9538 37.2479 41.0358 37.4547 41.0358C37.6615 41.0358 37.8598 40.9538 38.0062 40.8078L40.4172 38.4016C40.4899 38.329 40.5477 38.2428 40.5871 38.1479C40.6264 38.0529 40.6467 37.9512 40.6467 37.8484C40.6467 37.7457 40.6264 37.6439 40.5871 37.549C40.5477 37.4541 40.4899 37.3679 40.4172 37.2953L39.4328 36.3109C39.6672 35.8594 39.8641 35.3937 40.0141 34.9094H41.4062C41.6134 34.9094 41.8122 34.8271 41.9587 34.6806C42.1052 34.534 42.1875 34.3353 42.1875 34.1281V30.7188C42.1875 30.5115 42.1052 30.3128 41.9587 30.1663C41.8122 30.0198 41.6134 29.9375 41.4062 29.9375H40.0109C39.8614 29.4534 39.6684 28.9838 39.4344 28.5344L40.4188 27.55C40.5647 27.4036 40.6467 27.2052 40.6467 26.9984C40.6467 26.7917 40.5647 26.5933 40.4188 26.4469L38.0062 24.0391C37.8597 23.8926 37.6611 23.8103 37.4539 23.8103C37.2467 23.8103 37.0481 23.8926 36.9016 24.0391L35.9172 25.0219C35.4694 24.7875 35.0013 24.594 34.5187 24.4438V23.0469C34.5187 22.8397 34.4364 22.641 34.2899 22.4944C34.1434 22.3479 33.9447 22.2656 33.7375 22.2656H30.325ZM13.1562 22.6781C11.7453 22.6781 10.5859 23.8391 10.5859 25.25C10.5859 26.6609 11.7453 27.8234 13.1562 27.8234C14.5672 27.8234 15.7281 26.6609 15.7281 25.25C15.7281 23.8391 14.5672 22.6781 13.1562 22.6781ZM31.1063 23.8281H32.9562V24.9516C32.956 25.1285 33.0158 25.3003 33.126 25.4389C33.2361 25.5774 33.39 25.6744 33.5625 25.7141C34.3187 25.8859 35.0375 26.1844 35.6938 26.5953C35.8436 26.6892 36.0208 26.7295 36.1965 26.7097C36.3721 26.6898 36.5359 26.6109 36.6609 26.4859L37.4547 25.6953L38.7609 26.9984L37.9703 27.7891C37.845 27.9142 37.7659 28.0783 37.746 28.2543C37.7261 28.4303 37.7666 28.6079 37.8609 28.7578C38.2703 29.4141 38.5656 30.1328 38.7359 30.8906C38.775 31.0637 38.8717 31.2183 39.0103 31.329C39.1489 31.4398 39.321 31.5001 39.4984 31.5H40.625V33.3469H39.5016C39.3246 33.3466 39.1528 33.4065 39.0143 33.5166C38.8757 33.6267 38.7787 33.7806 38.7391 33.9531C38.5672 34.7094 38.2703 35.4313 37.8578 36.0875C37.7639 36.2373 37.7236 36.4145 37.7435 36.5902C37.7633 36.7659 37.8422 36.9296 37.9672 37.0547L38.7609 37.8484L37.4547 39.1516L36.6641 38.3641C36.5392 38.2398 36.3761 38.1614 36.2011 38.1416C36.0261 38.1217 35.8495 38.1616 35.7 38.2547C35.0422 38.6641 34.3187 38.9594 33.5625 39.1297C33.3905 39.1692 33.237 39.2658 33.127 39.4037C33.0169 39.5415 32.9567 39.7126 32.9562 39.8891V41.0156H31.1063V39.8922C31.1058 39.7158 31.0456 39.5447 30.9355 39.4068C30.8255 39.2689 30.672 39.1723 30.5 39.1328C29.745 38.9606 29.0244 38.6621 28.3687 38.25C28.2189 38.1561 28.0417 38.1158 27.866 38.1357C27.6904 38.1555 27.5266 38.2344 27.4016 38.3594L26.6078 39.1516L25.3016 37.8484L26.0922 37.0578C26.2175 36.9327 26.2966 36.7686 26.3165 36.5926C26.3364 36.4166 26.2959 36.239 26.2016 36.0891C25.792 35.4324 25.4962 34.7113 25.3266 33.9563C25.2875 33.7832 25.1908 33.6286 25.0522 33.5178C24.9136 33.4071 24.7415 33.3468 24.5641 33.3469H23.4375V31.5H24.5609C24.7381 31.5002 24.9101 31.4401 25.0487 31.3297C25.1872 31.2192 25.2841 31.065 25.3234 30.8922C25.4953 30.1375 25.7922 29.4156 26.2047 28.7594C26.2986 28.6096 26.3389 28.4323 26.319 28.2567C26.2992 28.081 26.2203 27.9172 26.0953 27.7922L25.3016 26.9984L26.6078 25.6953L27.3984 26.4828C27.5233 26.607 27.6864 26.6854 27.8614 26.7053C28.0364 26.7251 28.213 26.6853 28.3625 26.5922C29.0203 26.1828 29.7438 25.8844 30.5 25.7141C30.6714 25.6747 30.8246 25.5786 30.9346 25.4413C31.0446 25.3041 31.1051 25.1337 31.1063 24.9578V23.8281ZM13.1562 24.2406C13.4173 24.2509 13.6642 24.3618 13.8453 24.5501C14.0263 24.7384 14.1275 24.9895 14.1275 25.2508C14.1275 25.512 14.0263 25.7631 13.8453 25.9514C13.6642 26.1398 13.4173 26.2507 13.1562 26.2609C12.8883 26.2609 12.6314 26.1545 12.442 25.9651C12.2525 25.7756 12.1461 25.5187 12.1461 25.2508C12.1461 24.9829 12.2525 24.7259 12.442 24.5365C12.6314 24.3471 12.8883 24.2406 13.1562 24.2406ZM32.0312 28.5156C30.9966 28.5201 30.0057 28.9332 29.2741 29.6647C28.5425 30.3963 28.1295 31.3873 28.125 32.4219C28.1291 33.4566 28.542 34.4478 29.2737 35.1795C30.0053 35.9111 30.9965 36.324 32.0312 36.3281C33.066 36.324 34.0572 35.9111 34.7888 35.1795C35.5205 34.4478 35.9334 33.4566 35.9375 32.4219C35.9375 30.2781 34.175 28.5156 32.0312 28.5156ZM32.0312 30.0781C33.3219 30.0781 34.375 31.1313 34.375 32.4219C34.375 33.7125 33.3219 34.7656 32.0312 34.7656C30.7406 34.7656 29.6875 33.7125 29.6875 32.4219C29.6875 31.1313 30.7406 30.0781 32.0312 30.0781Z" fill="url(#paint0_linear_123_45)"/>
<defs>
<linearGradient id="paint0_linear_123_45" x1="5.92969" y1="25.1953" x2="39.0625" y2="25.1953" gradientUnits="userSpaceOnUse">
<stop stop-color="white"/>
<stop offset="1" stop-color="#08275E"/>
</linearGradient>
</defs>
</svg>
