<svg width="92" height="92" viewBox="0 0 92 92" fill="none" xmlns="http://www.w3.org/2000/svg">
<path d="M78.013 80.9745L69.8911 89.1395C69.6611 89.3695 69.8624 89.8582 70.1499 89.8007L79.3499 88.047L81.4918 87.6445L90.6918 85.8907C90.9793 85.8332 90.9793 85.3014 90.6918 85.172L80.1405 80.5576L78.013 80.9745Z" fill="#08275E"/>
<path d="M74.908 57.27C84.2518 55.4875 90.3899 46.4744 88.6074 37.1307L83.3893 9.67441C83.3749 9.63129 83.3318 9.60254 83.2886 9.60254L49.608 16.0138C49.5649 16.0282 49.5361 16.0713 49.5361 16.1144L54.7543 43.5707C56.5511 52.9 65.5643 59.0382 74.908 57.27Z" fill="#08275E"/>
<path d="M52.4688 31.4673L54.7687 43.571C56.5512 52.9148 65.5644 59.0529 74.9081 57.2704C84.2519 55.4879 90.39 46.4748 88.6075 37.131L86.3075 25.0273C69.4888 18.4435 62.9625 43.3985 52.4688 31.4673Z" fill="#95742F"/>
<path d="M13.9869 80.9745L22.1087 89.1395C22.3388 89.3695 22.1375 89.8582 21.85 89.8007L12.65 88.047L10.4938 87.6445L1.29375 85.8907C1.00625 85.8332 1.00625 85.3014 1.29375 85.172L11.845 80.5576L13.9869 80.9745Z" fill="#08275E"/>
<path d="M17.0918 57.27C7.74804 55.4875 1.60991 46.4744 3.39241 37.1307L8.61053 9.67441C8.61053 9.63129 8.65366 9.60254 8.69678 9.60254L42.3774 16.0138C42.4205 16.0282 42.4493 16.0713 42.4493 16.1144L37.2312 43.5563C35.4487 52.9 26.4355 59.0382 17.0918 57.27Z" fill="#08275E"/>
<path d="M39.5312 31.4673L37.2312 43.571C35.4487 52.9148 26.4355 59.0529 17.0918 57.2704C7.74804 55.4879 1.60991 46.4748 3.39241 37.131L5.69241 25.0273C22.5112 18.4435 29.0374 43.3985 39.5312 31.4673Z" fill="#95742F"/>
<path d="M75.6776 57.1246L73.5593 57.5273L78.0164 80.9699L80.1347 80.5672L75.6776 57.1246Z" fill="#08275E"/>
<path d="M16.3113 57.1173L11.8682 80.5625L13.9867 80.964L18.4299 57.5188L16.3113 57.1173Z" fill="#08275E"/>
<path d="M46.0001 1.12109C45.4107 1.12109 44.922 1.60984 44.922 2.19922V8.88359C44.922 9.47297 45.4107 9.96172 46.0001 9.96172C46.5895 9.96172 47.0782 9.47297 47.0782 8.88359V2.19922C47.0782 1.59547 46.5895 1.12109 46.0001 1.12109ZM52.9432 4.61422C52.4114 4.35547 51.7645 4.57109 51.5057 5.10297L48.717 10.7811C48.4582 11.313 48.6739 11.9598 49.2057 12.2186C49.3639 12.2905 49.522 12.3336 49.6801 12.3336C50.0826 12.3336 50.4564 12.118 50.6432 11.7298L53.432 6.05172C53.7051 5.51984 53.4895 4.87297 52.9432 4.61422ZM40.4945 5.10297C40.2357 4.57109 39.5889 4.34109 39.057 4.61422C38.5251 4.87297 38.2951 5.51984 38.5682 6.05172L41.357 11.7298C41.5439 12.118 41.932 12.3336 42.3201 12.3336C42.4782 12.3336 42.6364 12.3048 42.7945 12.2186C43.3264 11.9598 43.5564 11.313 43.2832 10.7811L40.4945 5.10297Z" fill="#D8D7D7"/>
</svg>
