<svg width="50" height="50" viewBox="0 0 50 50" fill="none" xmlns="http://www.w3.org/2000/svg">
<path d="M49.6089 29.3889C49.514 26.7892 47.4908 24.7736 44.2342 23.9306C45.1755 23.0372 45.7642 21.7758 45.7642 20.3786C45.7642 17.6769 43.5661 15.4788 40.8644 15.4788C38.1626 15.4788 35.9646 17.6769 35.9646 20.3786C35.9646 21.7763 36.5539 23.0382 37.4959 23.9317C36.7047 24.1383 35.9724 24.4176 35.3233 24.7605C34.8548 24.1058 34.3258 23.497 33.7441 22.9429C33.7441 22.9401 33.7445 22.9375 33.7445 22.9348V19.1189C33.7445 19.1118 33.7445 19.1047 33.7441 19.0976C33.6492 16.4979 31.6261 14.4822 28.3694 13.6393C29.3107 12.7458 29.8994 11.4844 29.8994 10.0872C29.8994 7.38555 27.7014 5.1875 24.9996 5.1875C22.2979 5.1875 20.0999 7.38555 20.0999 10.0872C20.0999 11.4844 20.6887 12.7458 21.6299 13.6392C18.3732 14.4821 16.3502 16.4978 16.2554 19.0975C16.2551 19.1046 16.255 19.1117 16.255 19.1188V22.9347C16.255 22.9374 16.2554 22.94 16.2554 22.9428C15.6737 23.4969 15.1446 24.1057 14.6761 24.7604C14.027 24.4174 13.2945 24.138 12.5034 23.9315C13.4454 23.0381 14.0347 21.7762 14.0347 20.3785C14.0347 17.6768 11.8366 15.4787 9.13486 15.4787C6.4331 15.4787 4.23516 17.6768 4.23516 20.3785C4.23516 21.7756 4.82393 23.037 5.76514 23.9305C2.5085 24.7735 0.485449 26.7891 0.390527 29.3888C0.390234 29.3959 0.390137 29.403 0.390137 29.4102V33.226C0.390137 33.5495 0.652539 33.8119 0.976074 33.8119H8.73623C8.87656 33.8168 9.00693 33.8191 9.13486 33.8191C9.26279 33.8191 9.39316 33.8168 9.5334 33.8119H12.425C13.252 40.0135 18.5754 44.8131 24.9995 44.8131C31.4236 44.8131 36.7471 40.0134 37.574 33.8119H40.4655C40.6059 33.8168 40.7362 33.8191 40.8641 33.8191C40.9919 33.8191 41.1225 33.8168 41.2627 33.8119H49.0229C49.3465 33.8119 49.6089 33.5495 49.6089 33.226V29.4102C49.6089 29.403 49.6089 29.3959 49.6085 29.3888L49.6089 29.3889ZM37.1366 20.3786C37.1366 18.323 38.8089 16.6507 40.8645 16.6507C42.92 16.6507 44.5924 18.323 44.5924 20.3786C44.5924 22.4342 42.92 24.1064 40.8645 24.1064C38.8089 24.1064 37.1366 22.4342 37.1366 20.3786ZM21.272 10.0872C21.272 8.03164 22.9442 6.35937 24.9998 6.35937C27.0554 6.35937 28.7277 8.03164 28.7277 10.0872C28.7277 12.1428 27.0554 13.8151 24.9998 13.8151C22.9442 13.8151 21.272 12.1428 21.272 10.0872ZM17.427 19.1299C17.5336 16.395 20.3361 14.9807 22.987 14.5527C23.6016 14.8309 24.2826 14.9871 24.9998 14.9871C25.717 14.9871 26.3981 14.831 27.0127 14.5527C29.6636 14.9807 32.4661 16.3951 32.5728 19.13V21.9539C30.4577 20.3753 27.836 19.4397 24.9999 19.4397C22.1638 19.4397 19.5421 20.3754 17.427 21.9539V19.1299ZM5.40732 20.3786C5.40732 18.323 7.07959 16.6507 9.13516 16.6507C11.1907 16.6507 12.8631 18.323 12.8631 20.3786C12.8631 22.4342 11.1907 24.1064 9.13516 24.1064C7.07959 24.1064 5.40732 22.4342 5.40732 20.3786ZM12.3244 32.6401H9.52353C9.5166 32.6401 9.50967 32.6401 9.50273 32.6405C9.24189 32.6497 9.02812 32.6497 8.76768 32.6405C8.76074 32.6402 8.75381 32.6401 8.74687 32.6401H1.5624V29.4212C1.66895 26.6864 4.47148 25.2721 7.12236 24.844C7.73691 25.1222 8.41797 25.2783 9.13516 25.2783C9.85234 25.2783 10.5336 25.1221 11.1481 24.8439C12.2252 25.017 13.2098 25.326 14.0366 25.7486C12.9416 27.6236 12.3132 29.8029 12.3132 32.1265C12.3132 32.2985 12.3176 32.4696 12.3244 32.6401ZM24.9999 43.6413C18.6506 43.6413 13.4851 38.4757 13.4851 32.1265C13.4851 25.7772 18.6507 20.6116 24.9999 20.6116C31.3491 20.6116 36.5147 25.7772 36.5147 32.1265C36.5147 38.4757 31.3491 43.6413 24.9999 43.6413ZM48.4374 32.6401H41.2529C41.246 32.6401 41.2391 32.6401 41.2321 32.6405C40.9714 32.6497 40.7576 32.6497 40.4971 32.6405C40.4901 32.6402 40.4832 32.6401 40.4763 32.6401H37.6754C37.6822 32.4696 37.6866 32.2986 37.6866 32.1265C37.6866 29.8029 37.0581 27.6236 35.9631 25.7485C36.7896 25.326 37.7743 25.0171 38.8515 24.8439C39.466 25.1222 40.1472 25.2783 40.8645 25.2783C41.5817 25.2783 42.2628 25.1222 42.8773 24.844C45.5281 25.2721 48.3308 26.6864 48.4374 29.4213V32.6401ZM32.0044 28.4113H21.0206L20.6421 26.8607C20.4091 25.9059 19.6317 25.2642 18.7077 25.2642H17.9954C17.6719 25.2642 17.4095 25.5266 17.4095 25.8501C17.4095 26.1736 17.6719 26.436 17.9954 26.436H18.7077C19.0871 26.436 19.3995 26.7117 19.5035 27.1385L19.991 29.1351C19.991 29.1351 19.991 29.1358 19.9912 29.1361L21.5187 35.3913C21.5827 35.6537 21.8178 35.8383 22.0879 35.8383H30.4769C30.747 35.8383 30.982 35.6536 31.0461 35.3913L32.5735 29.1361C32.6162 28.9614 32.5762 28.7768 32.4651 28.6354C32.3541 28.4938 32.1842 28.4112 32.0043 28.4112L32.0044 28.4113ZM30.0169 34.6665H22.548L21.3068 29.5832H31.2581L30.0169 34.6665ZM24.0293 36.5875C23.1292 36.5875 22.397 37.3198 22.397 38.2199C22.397 39.12 23.1292 39.8522 24.0293 39.8522C24.9294 39.8522 25.6616 39.12 25.6616 38.2199C25.6616 37.3198 24.9294 36.5875 24.0293 36.5875ZM24.0293 38.6804C23.7754 38.6804 23.5688 38.4738 23.5688 38.2199C23.5688 37.966 23.7754 37.7594 24.0293 37.7594C24.2832 37.7594 24.4897 37.9659 24.4897 38.2199C24.4897 38.4739 24.2832 38.6804 24.0293 38.6804ZM28.5357 36.5875C27.6356 36.5875 26.9034 37.3198 26.9034 38.2199C26.9034 39.12 27.6356 39.8522 28.5357 39.8522C29.4358 39.8522 30.1682 39.12 30.1682 38.2199C30.1682 37.3198 29.4358 36.5875 28.5357 36.5875ZM28.5357 38.6804C28.2818 38.6804 28.0753 38.4738 28.0753 38.2199C28.0753 37.966 28.2818 37.7594 28.5357 37.7594C28.7896 37.7594 28.9963 37.9659 28.9963 38.2199C28.9963 38.4739 28.7897 38.6804 28.5357 38.6804Z" fill="url(#paint0_linear_118_633)"/>
<defs>
<linearGradient id="paint0_linear_118_633" x1="35.8791" y1="10.7118" x2="17.1115" y2="43.2184" gradientUnits="userSpaceOnUse">
<stop stop-color="white"/>
<stop offset="1" stop-color="white"/>
</linearGradient>
</defs>
</svg>
