<svg width="50" height="50" viewBox="0 0 50 50" fill="none" xmlns="http://www.w3.org/2000/svg">
<g clip-path="url(#clip0_118_666)">
<path d="M29.9547 32.9863C29.8068 32.8425 29.6086 32.762 29.4023 32.762C29.196 32.762 28.9979 32.8425 28.85 32.9863L23.7586 38.0773C20.5851 41.2504 15.3488 41.177 12.0859 37.9137C8.95428 34.7816 8.75623 29.4078 11.9226 26.241L17.0136 21.1504C17.1578 21.0026 17.2385 20.8043 17.2385 20.5979C17.2385 20.3914 17.1578 20.1931 17.0136 20.0453L11.2621 14.2938C11.1128 14.1527 10.9152 14.0741 10.7097 14.0741C10.5043 14.0741 10.3067 14.1527 10.1574 14.2938L5.06599 19.3852C-1.80744 26.2586 -1.66916 37.5816 5.37459 44.6254C7.06616 46.3262 9.07675 47.6764 11.2911 48.5987C13.5055 49.521 15.8801 49.9972 18.2789 50C20.5677 50.0106 22.836 49.5684 24.9532 48.6989C27.0705 47.8294 28.9948 46.5497 30.6156 44.9336L35.7066 39.843C35.8516 39.6955 35.9329 39.497 35.9329 39.2902C35.9329 39.0834 35.8516 38.8849 35.7066 38.7375L29.9547 32.9863ZM29.5101 43.8281C23.2453 50.0922 12.9144 49.9543 6.47967 43.5199C0.0452906 37.0859 -0.0933815 26.7543 6.17107 20.4898L10.7101 15.9512L15.3562 20.598L10.8179 25.1363C7.03513 28.9188 7.10857 35.1461 10.9812 39.0188C14.8527 42.8914 21.0808 42.9648 24.8636 39.1824L29.4023 34.6434L34.0488 39.2902L29.5101 43.8281ZM16.0101 15.6211C16.2164 15.6232 16.415 15.5434 16.5625 15.3992L18.9719 12.9898L19.3144 14.1414C19.353 14.2711 19.4246 14.3886 19.5223 14.4823C19.6199 14.576 19.7402 14.6427 19.8713 14.6759C20.0025 14.7092 20.1401 14.7078 20.2705 14.6719C20.401 14.6359 20.5199 14.5668 20.6156 14.4711L24.3762 10.7109C24.4487 10.6384 24.5063 10.5522 24.5455 10.4574C24.5848 10.3626 24.605 10.261 24.605 10.1584C24.605 10.0558 24.5848 9.95417 24.5455 9.85937C24.5063 9.76456 24.4487 9.67842 24.3762 9.60586C24.3036 9.5333 24.2174 9.47574 24.1226 9.43647C24.0278 9.3972 23.9262 9.37699 23.8236 9.37699C23.721 9.37699 23.6194 9.3972 23.5246 9.43647C23.4298 9.47574 23.3436 9.5333 23.2711 9.60586L20.4383 12.4387L20.0961 11.2863C20.0575 11.1566 19.9858 11.0391 19.8881 10.9454C19.7905 10.8517 19.6701 10.7849 19.5389 10.7517C19.4077 10.7185 19.2701 10.72 19.1396 10.756C19.0091 10.792 18.8902 10.8613 18.7945 10.957L15.4574 14.2941C15.3515 14.4042 15.28 14.5427 15.2518 14.6928C15.2236 14.8429 15.2399 14.9979 15.2986 15.1389C15.3573 15.2799 15.4559 15.4006 15.5823 15.4863C15.7088 15.5719 15.8574 15.6188 16.0101 15.6211ZM39.2894 25.6242L35.5293 29.3848C35.4336 29.4805 35.3644 29.5994 35.3285 29.7298C35.2926 29.8603 35.2912 29.9979 35.3244 30.129C35.3577 30.2602 35.4244 30.3805 35.5181 30.4781C35.6118 30.5757 35.7293 30.6474 35.859 30.6859L37.0105 31.0281L34.6012 33.4383C34.4547 33.5848 34.3724 33.7835 34.3724 33.9906C34.3724 34.1978 34.4547 34.3965 34.6012 34.543C34.7491 34.6867 34.9474 34.7672 35.1537 34.7672C35.36 34.7672 35.5582 34.6867 35.7062 34.543L39.0433 31.2055C39.139 31.1098 39.2082 30.9909 39.2441 30.8604C39.28 30.7299 39.2814 30.5924 39.2482 30.4612C39.2149 30.33 39.1482 30.2098 39.0545 30.1121C38.9608 30.0145 38.8433 29.9429 38.7137 29.9043L37.5617 29.5621L40.3945 26.7293C40.5411 26.5828 40.6235 26.384 40.6235 26.1767C40.6236 25.9694 40.5412 25.7706 40.3947 25.624C40.2482 25.4774 40.0494 25.3951 39.8421 25.395C39.6348 25.395 39.436 25.4777 39.2894 25.6242ZM29.0984 13.2797C28.7437 11.5356 28.8725 9.72761 29.471 8.05141C30.0695 6.37521 31.1149 4.89453 32.4941 3.76953C32.6242 2.88469 32.944 2.03842 33.4316 1.28867C30.7783 2.66898 28.7795 5.0439 27.8725 7.89398C26.9655 10.7441 27.2241 13.8374 28.5918 16.4973L29.0984 13.2797ZM43.9086 1.28867C44.3962 2.03842 44.716 2.88469 44.8461 3.76953C46.2252 4.89458 47.2705 6.37527 47.869 8.05147C48.4674 9.72767 48.5962 11.5356 48.2414 13.2797L48.7476 16.4973C50.1152 13.8375 50.3739 10.7444 49.467 7.89439C48.5602 5.04441 46.5617 2.66912 43.9086 1.28867ZM38.6703 21.0973C36.793 21.0989 34.9555 20.5562 33.3804 19.5348H30.8687C32.9706 21.5409 35.7645 22.6602 38.6701 22.6602C41.5757 22.6602 44.3696 21.5409 46.4715 19.5348H43.9597C42.3847 20.5562 40.5476 21.0989 38.6703 21.0973ZM46.5199 12.3949C46.4504 12.0119 46.2587 11.6616 45.9735 11.3966C45.6883 11.1315 45.325 10.9659 44.9379 10.9246L41.507 10.3852C41.4512 10.377 41.3977 10.3571 41.35 10.327C40.8646 10.5599 40.3509 10.7285 39.8219 10.8285L39.8269 10.841C39.9545 11.1294 40.1533 11.3805 40.4047 11.5708C40.6561 11.761 40.9519 11.8842 41.264 11.9285L44.7121 12.4707C44.8836 12.4938 44.9687 12.5855 44.9746 12.6246L45.5699 16.409H31.7703L32.3676 12.6117C32.3711 12.5855 32.4566 12.4938 32.6449 12.468L36.0762 11.9289C36.3883 11.8844 36.684 11.7611 36.9354 11.5707C37.1867 11.3803 37.3855 11.1291 37.5129 10.8406L37.5179 10.8285C36.9889 10.7285 36.4752 10.5599 35.9898 10.327C35.9424 10.3569 35.8891 10.3766 35.8336 10.3848L32.4195 10.9219C32.0313 10.9602 31.6659 11.1231 31.3779 11.3863C31.0899 11.6495 30.8949 11.9988 30.8219 12.382L30.0844 17.0691C30.0669 17.1806 30.0737 17.2946 30.1045 17.4031C30.1352 17.5117 30.1891 17.6123 30.2625 17.6981C30.3358 17.7838 30.4269 17.8527 30.5294 17.8999C30.6319 17.9471 30.7434 17.9715 30.8562 17.9715H46.484C46.5968 17.9714 46.7082 17.947 46.8107 17.8997C46.9131 17.8525 47.0041 17.7837 47.0774 17.6979C47.1508 17.6122 47.2046 17.5116 47.2353 17.403C47.2661 17.2945 47.2729 17.1806 47.2554 17.0691L46.5199 12.3949ZM38.6699 9.37656C39.5972 9.37656 40.5036 9.1016 41.2746 8.58645C42.0456 8.07129 42.6465 7.33908 43.0013 6.48241C43.3562 5.62574 43.449 4.68308 43.2681 3.77365C43.0872 2.86421 42.6407 2.02884 41.985 1.37317C41.3293 0.7175 40.494 0.270984 39.5845 0.0900861C38.6751 -0.0908122 37.7324 0.00203135 36.8758 0.356876C36.0191 0.711721 35.2869 1.31263 34.7717 2.08361C34.2566 2.8546 33.9816 3.76103 33.9816 4.68828C33.983 5.93128 34.4773 7.12298 35.3563 8.00191C36.2352 8.88085 37.4269 9.37522 38.6699 9.37656ZM38.6699 1.56289C39.288 1.56289 39.8923 1.74619 40.4063 2.08962C40.9202 2.43304 41.3208 2.92116 41.5574 3.49225C41.7939 4.06334 41.8558 4.69175 41.7352 5.29802C41.6146 5.90428 41.317 6.46117 40.8799 6.89827C40.4428 7.33536 39.8859 7.63303 39.2796 7.75362C38.6734 7.87421 38.045 7.81232 37.4739 7.57577C36.9028 7.33921 36.4147 6.93862 36.0712 6.42466C35.7278 5.91069 35.5445 5.30643 35.5445 4.68828C35.5454 3.85966 35.875 3.06525 36.4609 2.47933C37.0469 1.8934 37.8413 1.56382 38.6699 1.56289Z" fill="white"/>
</g>
<defs>
<clipPath id="clip0_118_666">
<rect width="50" height="50" fill="white"/>
</clipPath>
</defs>
</svg>
