<svg width="50" height="50" viewBox="0 0 50 50" fill="none" xmlns="http://www.w3.org/2000/svg">
<path d="M41.4205 6.49023C41.2255 6.49023 41.0385 6.5677 40.9006 6.7056C40.7627 6.84349 40.6853 7.03052 40.6853 7.22553C40.6853 7.42054 40.7627 7.60757 40.9006 7.74546C41.0385 7.88335 41.2255 7.96082 41.4205 7.96082C42.1573 7.96082 42.7566 8.55641 42.7566 9.2895V45.7226C42.756 46.0767 42.615 46.4162 42.3646 46.6667C42.1142 46.9171 41.7747 47.058 41.4205 47.0586H12.8794C12.5252 47.058 12.1857 46.9171 11.9353 46.6667C11.6849 46.4162 11.5439 46.0767 11.5433 45.7226C11.5433 45.5276 11.4659 45.3405 11.328 45.2027C11.1901 45.0648 11.0031 44.9873 10.808 44.9873C10.613 44.9873 10.426 45.0648 10.2881 45.2027C10.1502 45.3405 10.0728 45.5276 10.0728 45.7226C10.0737 46.4666 10.3697 47.18 10.8959 47.7061C11.422 48.2322 12.1353 48.5282 12.8794 48.5292H41.4205C42.1646 48.5282 42.8779 48.2322 43.404 47.7061C43.9302 47.18 44.2262 46.4666 44.2272 45.7226V9.28876C44.225 8.54581 43.9284 7.83401 43.4023 7.30941C42.8762 6.78482 42.1635 6.49023 41.4205 6.49023Z" fill="#F5F5F5"/>
<path d="M6.50727 17.0883C6.70228 17.0883 6.8893 17.0109 7.0272 16.873C7.16509 16.7351 7.24256 16.5481 7.24256 16.3531V12.2707H14.4043C14.9801 12.2697 15.5319 12.0404 15.9389 11.6331C16.3458 11.2258 16.5745 10.6737 16.5749 10.0979V2.94129H37.758C37.9433 2.94129 38.1209 3.01489 38.2519 3.14589C38.3829 3.27689 38.4565 3.45456 38.4565 3.63982V30.7825C38.4565 30.9775 38.534 31.1645 38.6719 31.3024C38.8098 31.4403 38.9968 31.5178 39.1918 31.5178C39.3868 31.5178 39.5739 31.4403 39.7118 31.3024C39.8497 31.1645 39.9271 30.9775 39.9271 30.7825V3.63982C39.9265 3.06459 39.6977 2.51309 39.2909 2.10641C38.8841 1.69973 38.3325 1.47109 37.7573 1.4707H15.8396C15.6896 1.4707 15.4543 1.55011 15.3183 1.68688L6.0058 11.0001C5.86897 11.145 5.78682 11.3329 5.77344 11.5317V16.3516C5.77344 16.5466 5.85091 16.7336 5.98881 16.8715C6.1267 17.0094 6.31373 17.0869 6.50874 17.0869L6.50727 17.0883ZM15.1029 10.1009C15.1027 10.2855 15.0292 10.4625 14.8987 10.593C14.7681 10.7236 14.5911 10.797 14.4065 10.7972H8.28815L15.1036 3.98173L15.1029 10.1009ZM39.9264 40.967V34.5053C39.9264 34.3102 39.8489 34.1232 39.711 33.9853C39.5731 33.8474 39.3861 33.77 39.1911 33.77C38.9961 33.77 38.8091 33.8474 38.6712 33.9853C38.5333 34.1232 38.4558 34.3102 38.4558 34.5053V40.967C38.4558 41.1523 38.3822 41.33 38.2512 41.461C38.1202 41.592 37.9425 41.6656 37.7573 41.6656H7.94109C7.75583 41.6656 7.57815 41.592 7.44716 41.461C7.31616 41.33 7.24256 41.1523 7.24256 40.967V20.3508C7.24256 20.1558 7.16509 19.9688 7.0272 19.8309C6.8893 19.693 6.70228 19.6156 6.50727 19.6156C6.31225 19.6156 6.12523 19.693 5.98734 19.8309C5.84944 19.9688 5.77197 20.1558 5.77197 20.3508V40.967C5.77256 41.5421 6.00128 42.0935 6.40794 42.5002C6.8146 42.9068 7.36598 43.1356 7.94109 43.1361H37.7573C38.3324 43.1356 38.8838 42.9068 39.2904 42.5002C39.6971 42.0935 39.9258 41.5421 39.9264 40.967Z" fill="#F5F5F5"/>
<path d="M34.4182 5.46875H19.9638C19.7688 5.46875 19.5817 5.54622 19.4439 5.68411C19.306 5.82201 19.2285 6.00903 19.2285 6.20404C19.2285 6.39906 19.306 6.58608 19.4439 6.72398C19.5817 6.86187 19.7688 6.93934 19.9638 6.93934H34.4182C34.6132 6.93934 34.8002 6.86187 34.9381 6.72398C35.076 6.58608 35.1535 6.39906 35.1535 6.20404C35.1535 6.00903 35.076 5.82201 34.9381 5.68411C34.8002 5.54622 34.6132 5.46875 34.4182 5.46875ZM35.1535 10.8687C35.1535 10.6737 35.076 10.4867 34.9381 10.3488C34.8002 10.2109 34.6132 10.1335 34.4182 10.1335H19.9638C19.7688 10.1335 19.5817 10.2109 19.4439 10.3488C19.306 10.4867 19.2285 10.6737 19.2285 10.8687C19.2285 11.0638 19.306 11.2508 19.4439 11.3887C19.5817 11.5266 19.7688 11.604 19.9638 11.604H34.4182C34.6132 11.604 34.8002 11.5266 34.9381 11.3887C35.076 11.2508 35.1535 11.0638 35.1535 10.8687ZM17.0461 26.1835C20.7197 26.1835 23.5454 23.1724 23.5454 19.6835C23.5454 16.1004 20.6292 13.1849 17.0454 13.1849C13.4616 13.1849 10.5469 16.1004 10.5469 19.6842C10.5469 23.3827 13.5844 26.1835 17.0461 26.1835ZM17.0461 24.7129C16.2082 24.7141 15.3835 24.5031 14.6491 24.0996L17.1417 20.7805L20.1741 23.6158C19.2881 24.3294 18.1837 24.7167 17.0461 24.7129ZM22.0748 19.6835C22.0754 20.7055 21.7623 21.7031 21.1778 22.5415L17.7807 19.3651V14.7085C20.2072 15.0651 22.0748 17.1599 22.0748 19.6835ZM16.3101 14.7092V19.4386L13.4733 23.2151C13.01 22.7515 12.6428 22.2009 12.3929 21.595C12.1431 20.989 12.0155 20.3396 12.0175 19.6842C12.0175 17.1607 13.8844 15.0665 16.3101 14.7092ZM11.2829 39.0393H33.3233C33.5184 39.0393 33.7054 38.9619 33.8433 38.824C33.9812 38.6861 34.0586 38.4991 34.0586 38.304C34.0586 38.109 33.9812 37.922 33.8433 37.7841C33.7054 37.6462 33.5184 37.5687 33.3233 37.5687H32.1101V28.5982C32.1101 28.4031 32.0326 28.2161 31.8947 28.0782C31.7569 27.9403 31.5698 27.8629 31.3748 27.8629H27.8366C27.6416 27.8629 27.4545 27.9403 27.3167 28.0782C27.1788 28.2161 27.1013 28.4031 27.1013 28.5982V37.5687H24.9939V31.6886C24.9939 31.4936 24.9165 31.3066 24.7786 31.1687C24.6407 31.0308 24.4537 30.9533 24.2586 30.9533H20.7197C20.5247 30.9533 20.3376 31.0308 20.1997 31.1687C20.0618 31.3066 19.9844 31.4936 19.9844 31.6886V37.5687H17.8631V34.1526C17.8631 33.9576 17.7856 33.7705 17.6477 33.6326C17.5098 33.4947 17.3228 33.4173 17.1278 33.4173H13.5888C13.3938 33.4173 13.2067 33.4947 13.0689 33.6326C12.931 33.7705 12.8535 33.9576 12.8535 34.1526V37.5687H11.2829C11.0879 37.5687 10.9009 37.6462 10.763 37.7841C10.6251 37.922 10.5476 38.109 10.5476 38.304C10.5476 38.4991 10.6251 38.6861 10.763 38.824C10.9009 38.9619 11.0879 39.0393 11.2829 39.0393ZM28.5719 29.3335H30.6403V37.5687H28.5704V29.3335H28.5719ZM21.4542 32.4239H23.5233V37.5687H21.455L21.4542 32.4239ZM14.3241 34.8871H16.3925V37.5687H14.3241V34.8871Z" fill="#F5F5F5"/>
</svg>
