<svg width="50" height="50" viewBox="0 0 50 50" fill="none" xmlns="http://www.w3.org/2000/svg">
<path d="M49.6094 29.3889C49.5145 26.7892 47.4913 24.7736 44.2347 23.9306C45.176 23.0372 45.7646 21.7758 45.7646 20.3786C45.7646 17.6769 43.5666 15.4788 40.8648 15.4788C38.1631 15.4788 35.9651 17.6769 35.9651 20.3786C35.9651 21.7763 36.5544 23.0382 37.4964 23.9317C36.7052 24.1383 35.9729 24.4176 35.3238 24.7605C34.8553 24.1058 34.3263 23.497 33.7446 22.9429C33.7446 22.9401 33.745 22.9375 33.745 22.9348V19.1189C33.745 19.1118 33.745 19.1047 33.7446 19.0976C33.6497 16.4979 31.6266 14.4822 28.3699 13.6393C29.3112 12.7458 29.8999 11.4844 29.8999 10.0872C29.8999 7.38555 27.7019 5.1875 25.0001 5.1875C22.2983 5.1875 20.1004 7.38555 20.1004 10.0872C20.1004 11.4844 20.6892 12.7458 21.6304 13.6392C18.3737 14.4821 16.3507 16.4978 16.2559 19.0975C16.2556 19.1046 16.2555 19.1117 16.2555 19.1188V22.9347C16.2555 22.9374 16.2559 22.94 16.2559 22.9428C15.6742 23.4969 15.1451 24.1057 14.6766 24.7604C14.0274 24.4174 13.295 24.138 12.5039 23.9315C13.4459 23.0381 14.0352 21.7762 14.0352 20.3785C14.0352 17.6768 11.8371 15.4787 9.13535 15.4787C6.43359 15.4787 4.23564 17.6768 4.23564 20.3785C4.23564 21.7756 4.82441 23.037 5.76562 23.9305C2.50898 24.7735 0.485937 26.7891 0.391016 29.3888C0.390723 29.3959 0.390625 29.403 0.390625 29.4102V33.226C0.390625 33.5495 0.653027 33.8119 0.976562 33.8119H8.73672C8.87705 33.8168 9.00742 33.8191 9.13535 33.8191C9.26328 33.8191 9.39365 33.8168 9.53389 33.8119H12.4255C13.2524 40.0135 18.5759 44.8131 25 44.8131C31.4241 44.8131 36.7476 40.0134 37.5745 33.8119H40.466C40.6063 33.8168 40.7367 33.8191 40.8646 33.8191C40.9924 33.8191 41.1229 33.8168 41.2632 33.8119H49.0234C49.347 33.8119 49.6094 33.5495 49.6094 33.226V29.4102C49.6094 29.403 49.6094 29.3959 49.609 29.3888L49.6094 29.3889ZM37.1371 20.3786C37.1371 18.323 38.8094 16.6507 40.8649 16.6507C42.9205 16.6507 44.5929 18.323 44.5929 20.3786C44.5929 22.4342 42.9205 24.1064 40.8649 24.1064C38.8094 24.1064 37.1371 22.4342 37.1371 20.3786ZM21.2725 10.0872C21.2725 8.03164 22.9447 6.35937 25.0003 6.35937C27.0559 6.35937 28.7282 8.03164 28.7282 10.0872C28.7282 12.1428 27.0559 13.8151 25.0003 13.8151C22.9447 13.8151 21.2725 12.1428 21.2725 10.0872ZM17.4275 19.1299C17.5341 16.395 20.3366 14.9807 22.9875 14.5527C23.6021 14.8309 24.2831 14.9871 25.0003 14.9871C25.7175 14.9871 26.3986 14.831 27.0132 14.5527C29.6641 14.9807 32.4666 16.3951 32.5732 19.13V21.9539C30.4582 20.3753 27.8365 19.4397 25.0004 19.4397C22.1643 19.4397 19.5426 20.3754 17.4275 21.9539V19.1299ZM5.40781 20.3786C5.40781 18.323 7.08008 16.6507 9.13564 16.6507C11.1912 16.6507 12.8636 18.323 12.8636 20.3786C12.8636 22.4342 11.1912 24.1064 9.13564 24.1064C7.08008 24.1064 5.40781 22.4342 5.40781 20.3786ZM12.3249 32.6401H9.52402C9.51709 32.6401 9.51016 32.6401 9.50322 32.6405C9.24238 32.6497 9.02861 32.6497 8.76816 32.6405C8.76123 32.6402 8.7543 32.6401 8.74736 32.6401H1.56289V29.4212C1.66943 26.6864 4.47197 25.2721 7.12285 24.844C7.7374 25.1222 8.41846 25.2783 9.13564 25.2783C9.85283 25.2783 10.5341 25.1221 11.1486 24.8439C12.2257 25.017 13.2103 25.326 14.0371 25.7486C12.9421 27.6236 12.3137 29.8029 12.3137 32.1265C12.3137 32.2985 12.3181 32.4696 12.3249 32.6401ZM25.0004 43.6413C18.6511 43.6413 13.4855 38.4757 13.4855 32.1265C13.4855 25.7772 18.6512 20.6116 25.0004 20.6116C31.3496 20.6116 36.5152 25.7772 36.5152 32.1265C36.5152 38.4757 31.3496 43.6413 25.0004 43.6413ZM48.4379 32.6401H41.2534C41.2465 32.6401 41.2395 32.6401 41.2326 32.6405C40.9719 32.6497 40.7581 32.6497 40.4976 32.6405C40.4906 32.6402 40.4837 32.6401 40.4768 32.6401H37.6759C37.6827 32.4696 37.6871 32.2986 37.6871 32.1265C37.6871 29.8029 37.0586 27.6236 35.9636 25.7485C36.7901 25.326 37.7748 25.0171 38.852 24.8439C39.4665 25.1222 40.1477 25.2783 40.8649 25.2783C41.5822 25.2783 42.2633 25.1222 42.8778 24.844C45.5286 25.2721 48.3312 26.6864 48.4379 29.4213V32.6401ZM32.0049 28.4113H21.0211L20.6426 26.8607C20.4096 25.9059 19.6322 25.2642 18.7082 25.2642H17.9959C17.6724 25.2642 17.41 25.5266 17.41 25.8501C17.41 26.1736 17.6724 26.436 17.9959 26.436H18.7082C19.0876 26.436 19.4 26.7117 19.504 27.1385L19.9915 29.1351C19.9915 29.1351 19.9915 29.1358 19.9917 29.1361L21.5191 35.3913C21.5832 35.6537 21.8183 35.8383 22.0884 35.8383H30.4773C30.7475 35.8383 30.9825 35.6536 31.0466 35.3913L32.574 29.1361C32.6167 28.9614 32.5767 28.7768 32.4656 28.6354C32.3546 28.4938 32.1847 28.4112 32.0048 28.4112L32.0049 28.4113ZM30.0174 34.6665H22.5485L21.3073 29.5832H31.2586L30.0174 34.6665ZM24.0298 36.5875C23.1297 36.5875 22.3975 37.3198 22.3975 38.2199C22.3975 39.12 23.1297 39.8522 24.0298 39.8522C24.9299 39.8522 25.6621 39.12 25.6621 38.2199C25.6621 37.3198 24.9299 36.5875 24.0298 36.5875ZM24.0298 38.6804C23.7759 38.6804 23.5693 38.4738 23.5693 38.2199C23.5693 37.966 23.7759 37.7594 24.0298 37.7594C24.2837 37.7594 24.4902 37.9659 24.4902 38.2199C24.4902 38.4739 24.2837 38.6804 24.0298 38.6804ZM28.5362 36.5875C27.6361 36.5875 26.9039 37.3198 26.9039 38.2199C26.9039 39.12 27.6361 39.8522 28.5362 39.8522C29.4363 39.8522 30.1687 39.12 30.1687 38.2199C30.1687 37.3198 29.4363 36.5875 28.5362 36.5875ZM28.5362 38.6804C28.2823 38.6804 28.0758 38.4738 28.0758 38.2199C28.0758 37.966 28.2823 37.7594 28.5362 37.7594C28.7901 37.7594 28.9968 37.9659 28.9968 38.2199C28.9968 38.4739 28.7902 38.6804 28.5362 38.6804Z" fill="url(#paint0_linear_118_825)"/>
<defs>
<linearGradient id="paint0_linear_118_825" x1="35.8796" y1="10.7118" x2="17.112" y2="43.2184" gradientUnits="userSpaceOnUse">
<stop stop-color="#95742F"/>
<stop offset="1" stop-color="#95742F"/>
</linearGradient>
</defs>
</svg>
