<svg width="50" height="50" viewBox="0 0 50 50" fill="none" xmlns="http://www.w3.org/2000/svg">
<path d="M41.2353 38.0352L45.1439 41.943C45.5245 42.3492 46.2661 42.1807 46.4332 41.6492C47.4213 38.8355 46.6957 35.6525 44.5846 33.5407C42.5606 31.5174 39.6736 30.7735 36.9522 31.5418L32.1236 26.7132C31.4031 25.9993 30.2961 27.0873 31.0189 27.8179C31.0188 27.8179 36.1824 32.9815 36.1824 32.9815C36.3937 33.1936 36.7104 33.2645 36.9926 33.1669C41.2365 31.5446 45.9616 35.4098 45.2643 39.8541C45.2644 39.854 42.0219 36.6115 42.0219 36.6115C41.8259 36.4139 41.5367 36.3346 41.2682 36.4094L37.87 37.3157C37.5999 37.3875 37.3886 37.5988 37.3169 37.8689L36.4105 41.267C36.338 41.5363 36.4159 41.8239 36.6127 42.0208L39.8552 45.2633C37.9532 45.5166 36.0451 44.878 34.6466 43.4788C32.9338 41.7652 32.3669 39.2795 33.168 36.9915C33.2664 36.7084 33.1947 36.3933 32.9826 36.1812L27.8191 31.0177C27.5139 30.7125 27.0195 30.7125 26.7143 31.0177C26.4091 31.3228 26.4091 31.8172 26.7143 32.1224L31.543 36.951C30.0424 41.7782 34.0604 46.9946 39.0863 46.8676C39.9483 46.8677 40.8157 46.7251 41.6504 46.4321C41.9037 46.3436 42.0937 46.1307 42.1532 45.8683C42.2134 45.6066 42.1341 45.3327 41.9441 45.1427L38.0363 41.2342L38.71 38.7089L41.2353 38.0352ZM8.76617 11.9648L4.85763 8.05664C4.4736 7.65125 3.73613 7.81821 3.56827 8.35039C2.58026 11.1645 3.30581 14.3467 5.41687 16.4581C7.44018 18.4814 10.3256 19.2249 13.0493 18.4578L17.878 23.2864C18.5987 24.0006 19.7053 22.9119 18.9826 22.1817C18.9827 22.1817 13.8191 17.0177 13.8191 17.0177C13.6078 16.8053 13.2912 16.7343 13.0089 16.8327C8.76766 18.4583 4.03955 14.588 4.73718 10.1454C4.73709 10.1456 7.97958 13.388 7.97958 13.388C8.17641 13.5853 8.46405 13.6619 8.73336 13.5906L12.1315 12.6842C12.4016 12.6121 12.6129 12.4008 12.6846 12.1307L13.591 8.73221C13.6635 8.46289 13.5857 8.17564 13.3888 7.97842L10.1463 4.73555C14.5896 4.04057 18.4583 8.76373 16.8334 13.0074C16.7351 13.2904 16.8068 13.6055 17.0189 13.8176L22.1825 18.9815C22.4876 19.2867 22.982 19.2867 23.2872 18.9815C23.5924 18.6764 23.5924 18.182 23.2872 17.8768L18.4586 13.0478C20.2377 7.07583 14.1998 1.44796 8.35104 3.56721C8.09784 3.656 7.90786 3.86885 7.84835 4.13054C7.78808 4.39261 7.86742 4.66651 8.0574 4.85648L11.9652 8.76464L11.2915 11.2911L8.76617 11.9648Z" fill="#95742F"/>
<path d="M4.75808 45.2423C6.91883 47.4971 10.8393 47.3831 12.8628 45.008C12.8628 45.0081 22.4691 34.2264 22.4691 34.2264L22.9885 34.7458C23.2937 35.0509 23.7881 35.0509 24.0933 34.7458C24.3984 34.4406 24.3984 33.9462 24.0933 33.641L22.4362 31.9839L40.4026 14.0175L42.9333 13.5109C43.1492 13.4678 43.3369 13.3354 43.4498 13.147L46.764 7.6229C46.9486 7.31544 46.8998 6.92176 46.6465 6.66846L43.3323 3.35387C43.079 3.10057 42.6861 3.05174 42.3779 3.23637L36.8534 6.55097C36.665 6.66427 36.5322 6.85194 36.4895 7.06748L35.9837 9.59776L18.0164 27.5642L16.3593 25.9071C16.0542 25.602 15.5598 25.602 15.2546 25.9071C14.9494 26.2123 14.9494 26.7067 15.2546 27.0119L15.774 27.5313L4.99232 37.1376C2.61825 39.1586 2.50278 43.0878 4.75808 45.2423ZM37.2555 10.5354C37.3646 10.4263 37.4386 10.2875 37.4691 10.1364L37.9536 7.71291L42.6586 4.89004L45.1107 7.34174L42.2878 12.0468C41.6647 12.2149 39.6321 12.4576 39.465 12.7452C39.465 12.7453 21.3314 30.8792 21.3314 30.8792L19.1212 28.669L37.2555 10.5354ZM6.03143 38.3049L16.881 28.6382L21.3622 33.1194L11.6955 43.9689C7.79964 48.0008 1.99119 42.2094 6.03143 38.3049Z" fill="#95742F"/>
<path d="M9.17786 41.6039C9.37775 41.6039 9.57764 41.5276 9.73022 41.3751L16.3594 34.7459C17.0768 34.0234 15.9819 32.9199 15.2546 33.6412C15.2547 33.6411 8.62548 40.2703 8.62548 40.2703C8.12804 40.7338 8.50912 41.6281 9.17786 41.6039Z" fill="#95742F"/>
</svg>
