<svg width="50" height="50" viewBox="0 0 50 50" fill="none" xmlns="http://www.w3.org/2000/svg">
<path d="M49.1565 18.9063L36.5003 6.57813C36.4276 6.50491 36.3412 6.44679 36.246 6.40712C36.1508 6.36746 36.0487 6.34704 35.9456 6.34704C35.8424 6.34704 35.7403 6.36746 35.6451 6.40712C35.5499 6.44679 35.4635 6.50491 35.3909 6.57813L30.4534 11.6563C30.3802 11.7289 30.322 11.8153 30.2824 11.9105C30.2427 12.0057 30.2223 12.1078 30.2223 12.2109C30.2223 12.3141 30.2427 12.4162 30.2824 12.5114C30.322 12.6066 30.3802 12.693 30.4534 12.7656L32.6878 14.9375C30.8678 14.2174 28.8501 14.173 27.0003 14.8125L26.3909 15.0625C26.1359 15.1786 25.8903 15.3144 25.6565 15.4688C25.4003 15.5979 25.1592 15.7551 24.9378 15.9375C24.8217 16.0117 24.7119 16.0953 24.6096 16.1875L23.4378 17.1875L21.4065 15.7344C19.9944 14.7281 18.2772 14.2422 16.5471 14.3594L18.6409 11.7188C18.7704 11.5588 18.8316 11.3542 18.8111 11.1494C18.7906 10.9446 18.6901 10.7562 18.5315 10.625L13.0628 6.14063C12.9859 6.07477 12.8963 6.0255 12.7995 5.99592C12.7027 5.96634 12.6008 5.9571 12.5003 5.96876C12.3948 5.9762 12.292 6.00497 12.198 6.05331C12.104 6.10165 12.0208 6.16857 11.9534 6.25001L0.781505 19.9531C0.651986 20.1131 0.590822 20.3177 0.611301 20.5225C0.631781 20.7273 0.732251 20.9157 0.89088 21.0469L6.35963 25.5156C6.51959 25.6452 6.7242 25.7063 6.92899 25.6858C7.13379 25.6654 7.32224 25.5649 7.45338 25.4063L8.06275 24.6563C7.89891 27.4662 8.65594 30.2529 10.219 32.5938C10.0231 33.0617 9.97042 33.5773 10.0678 34.0752C10.1651 34.5731 10.4081 35.0309 10.7659 35.3906L10.8596 35.4844H10.9378C11.4086 35.9492 12.0418 36.2126 12.7034 36.2188C12.712 36.8829 12.9814 37.517 13.4534 37.9844L13.5471 38.0781C14.0145 38.5501 14.6486 38.8195 15.3128 38.8281C15.2956 39.4915 15.5365 40.1356 15.9846 40.625L16.0628 40.7031C16.5336 41.168 17.1668 41.4313 17.8284 41.4375C17.837 42.1017 18.1064 42.7358 18.5784 43.2031L18.6721 43.2969C18.9097 43.5355 19.1922 43.7246 19.5033 43.8534C19.8144 43.9821 20.1479 44.0479 20.4846 44.0469C20.8212 44.047 21.1545 43.9809 21.4655 43.8522C21.7765 43.7235 22.0591 43.5348 22.2971 43.2969L24.1409 41.4531C24.906 41.5726 25.679 41.6352 26.4534 41.6406C28.98 41.6374 31.4698 41.0353 33.7187 39.8837C35.9676 38.7321 37.9115 37.0638 39.3909 35.0156L39.7659 34.4844C40.2571 33.8144 40.551 33.0203 40.6146 32.1919C40.6781 31.3636 40.5086 30.534 40.1253 29.7969C41.2865 27.8924 41.771 25.6517 41.5003 23.4375L43.0628 25C43.2095 25.1415 43.4058 25.22 43.6096 25.2188C43.8157 25.2158 44.0123 25.1316 44.1565 24.9844L49.094 19.9219C49.224 19.788 49.3018 19.6119 49.3133 19.4256C49.3247 19.2393 49.2691 19.0551 49.1565 18.9063ZM23.6565 18.9063C23.7713 18.879 23.8783 18.8255 23.969 18.75L25.5315 17.4375L25.7815 17.25C25.9572 17.1157 26.1398 16.9905 26.3284 16.875L26.8284 16.5938L27.5159 16.2969C27.5908 16.2613 27.6594 16.2138 27.719 16.1563C28.962 15.7506 30.2981 15.7273 31.5545 16.0894C32.8108 16.4516 33.9295 17.1825 34.7659 18.1875L34.9065 18.3906C35.3241 18.8688 35.5645 19.4762 35.5872 20.1106C35.61 20.7451 35.4138 21.3681 35.0315 21.875C34.7075 22.3842 34.2308 22.7779 33.6694 22.9996C33.1081 23.2213 32.491 23.2598 31.9065 23.1094H31.8128C31.3084 22.9518 30.8694 22.6335 30.5628 22.2031C30.5349 22.1639 30.5036 22.1273 30.469 22.0938L30.3284 21.875L28.4846 19.6094C28.3535 19.4508 28.165 19.3503 27.9602 19.3298C27.7554 19.3093 27.5508 19.3705 27.3909 19.5L22.2971 23.6563C22.0803 23.8314 21.8163 23.9382 21.5386 23.963C21.2609 23.9878 20.9822 23.9296 20.7377 23.7956C20.4932 23.6616 20.2941 23.458 20.1656 23.2107C20.037 22.9633 19.9849 22.6833 20.0159 22.4063C20.0348 22.2235 20.0902 22.0463 20.1788 21.8853C20.2673 21.7243 20.3873 21.5826 20.5315 21.4688L23.6565 18.9063ZM6.75026 23.8281L2.48463 20.3125L12.6721 7.81251L16.9221 11.2969L13.969 14.9531C12.7162 15.4889 11.635 16.3593 10.844 17.4688L10.469 18C9.71435 19.0559 9.1243 20.2202 8.719 21.4531L6.75026 23.8281ZM13.3753 34.375C13.1881 34.5601 12.9354 34.6639 12.6721 34.6639C12.4089 34.6639 12.1562 34.5601 11.969 34.375L11.4221 34.9219L11.8753 34.375C11.6901 34.1878 11.5863 33.9352 11.5863 33.6719C11.5863 33.4086 11.6901 33.156 11.8753 32.9688L14.7659 30.0625C14.9179 29.9127 15.1228 29.8287 15.3362 29.8287C15.5496 29.8287 15.7545 29.9127 15.9065 30.0625L16.2659 30.4219C16.3419 30.4961 16.4024 30.5848 16.4437 30.6828C16.4849 30.7807 16.5062 30.8859 16.5062 30.9922C16.5062 31.0985 16.4849 31.2037 16.4437 31.3016C16.4024 31.3996 16.3419 31.4883 16.2659 31.5625L13.3753 34.375ZM15.9846 36.9688C15.7987 37.1568 15.5459 37.2635 15.2815 37.2656C15.1504 37.2655 15.0207 37.2391 14.9 37.1881C14.7793 37.1371 14.6699 37.0626 14.5784 36.9688L14.4846 36.875C14.2966 36.6891 14.1899 36.4363 14.1878 36.1719C14.1879 36.0408 14.2143 35.9111 14.2653 35.7904C14.3163 35.6696 14.3908 35.5603 14.4846 35.4688L17.3753 32.5625C17.4495 32.4864 17.5382 32.426 17.6361 32.3847C17.7341 32.3435 17.8393 32.3222 17.9456 32.3222C18.0519 32.3222 18.1571 32.3435 18.255 32.3847C18.3529 32.426 18.4416 32.4864 18.5159 32.5625L18.8753 32.9219C19.0251 33.0739 19.109 33.2788 19.109 33.4922C19.109 33.7056 19.0251 33.9105 18.8753 34.0625L15.9846 36.9688ZM18.594 39.5625C18.4068 39.7476 18.1542 39.8514 17.8909 39.8514C17.6276 39.8514 17.375 39.7476 17.1878 39.5625L16.6409 40.1094L17.1096 39.4688C16.9245 39.2816 16.8207 39.0289 16.8207 38.7656C16.8207 38.5024 16.9245 38.2497 17.1096 38.0625L20.0003 35.1563C20.1493 35.0067 20.3516 34.9224 20.5628 34.9219C20.7739 34.9224 20.9762 35.0067 21.1253 35.1563L21.4846 35.5156C21.5607 35.5899 21.6211 35.6786 21.6624 35.7765C21.7037 35.8745 21.7249 35.9797 21.7249 36.0859C21.7249 36.1922 21.7037 36.2974 21.6624 36.3954C21.6211 36.4933 21.5607 36.582 21.4846 36.6563L18.594 39.5625ZM24.094 39.2656L21.1878 42.1875C21.0006 42.3726 20.7479 42.4764 20.4846 42.4764C20.2214 42.4764 19.9687 42.3726 19.7815 42.1875L19.6878 42.0938C19.5026 41.9066 19.3988 41.6539 19.3988 41.3906C19.3988 41.1274 19.5026 40.8747 19.6878 40.6875L22.5784 37.7813C22.6526 37.7052 22.7413 37.6447 22.8393 37.6035C22.9372 37.5622 23.0424 37.5409 23.1487 37.5409C23.255 37.5409 23.3602 37.5622 23.4581 37.6035C23.5561 37.6447 23.6448 37.7052 23.719 37.7813L24.0784 38.1406C24.1544 38.2149 24.2149 38.3036 24.2562 38.4015C24.2974 38.4995 24.3187 38.6047 24.3187 38.7109C24.3187 38.8172 24.2974 38.9224 24.2562 39.0204C24.2149 39.1183 24.1544 39.207 24.0784 39.2813L24.094 39.2656ZM38.5003 33.5469L38.3128 33.8281L34.3753 31.125C34.2915 31.0601 34.1953 31.0128 34.0927 30.9862C33.9901 30.9596 33.8831 30.9542 33.7783 30.9702C33.6736 30.9863 33.5731 31.0235 33.4832 31.0796C33.3932 31.1357 33.3156 31.2095 33.2551 31.2965C33.1946 31.3836 33.1525 31.4821 33.1312 31.5859C33.11 31.6898 33.1101 31.7969 33.1315 31.9007C33.153 32.0045 33.1954 32.1029 33.2561 32.1898C33.3168 32.2767 33.3946 32.3504 33.4846 32.4063L35.3596 33.7031C35.4309 33.7762 35.5159 33.8346 35.6096 33.875L37.3128 35.0625C36.8067 35.6539 36.2527 36.2027 35.6565 36.7031L31.594 33.8906C31.5102 33.8257 31.4141 33.7785 31.3115 33.7519C31.2089 33.7252 31.1019 33.7198 30.9971 33.7358C30.8923 33.7519 30.7919 33.7891 30.7019 33.8452C30.612 33.9013 30.5344 33.9751 30.4739 34.0622C30.4134 34.1492 30.3712 34.2477 30.35 34.3515C30.3287 34.4554 30.3288 34.5625 30.3503 34.6663C30.3718 34.7701 30.4142 34.8685 30.4748 34.9554C30.5356 35.0423 30.6133 35.116 30.7034 35.1719L34.3753 37.6719C33.5738 38.2089 32.7206 38.6643 31.8284 39.0313L28.1253 36.4688C28.0415 36.4038 27.9453 36.3566 27.8427 36.33C27.7401 36.3034 27.6331 36.2979 27.5283 36.314C27.4236 36.33 27.3231 36.3672 27.2332 36.4233C27.1432 36.4794 27.0656 36.5533 27.0051 36.6403C26.9446 36.7273 26.9024 36.8258 26.8812 36.9297C26.86 37.0335 26.8601 37.1406 26.8816 37.2444C26.903 37.3483 26.9454 37.4466 27.0061 37.5335C27.0668 37.6205 27.1446 37.6941 27.2346 37.75L29.9378 39.625C28.4815 39.9779 26.9787 40.0992 25.4846 39.9844C25.7875 39.537 25.9266 38.9986 25.8782 38.4605C25.8297 37.9223 25.5969 37.4174 25.219 37.0313L24.8596 36.6719C24.4422 36.2589 23.8841 36.0189 23.2971 36C23.2725 35.4113 23.0271 34.8534 22.6096 34.4375L22.2503 34.0781C21.8344 33.6607 21.2765 33.4152 20.6878 33.3906C20.6673 32.804 20.4276 32.2465 20.0159 31.8281L19.6565 31.4688C19.2406 31.0513 18.6827 30.8059 18.094 30.7813C18.0736 30.1947 17.8338 29.6371 17.4221 29.2188L17.0628 28.8594C16.8414 28.6264 16.5748 28.441 16.2792 28.3147C15.9836 28.1885 15.6654 28.1239 15.344 28.125C15.0337 28.1232 14.7261 28.1831 14.4391 28.3011C14.1521 28.4191 13.8914 28.5929 13.6721 28.8125L11.2503 31.25C10.4235 29.8766 9.89595 28.3442 9.70209 26.7529C9.50822 25.1616 9.65242 23.5474 10.1253 22.0156C10.4804 20.8991 11.0076 19.8447 11.6878 18.8906L12.0628 18.3594C12.7276 17.4271 13.6511 16.7101 14.719 16.2969C15.6483 15.9331 16.6537 15.807 17.644 15.9297C18.6344 16.0525 19.5785 16.4204 20.3909 17L22.0784 18.2031L19.5315 20.3125C19.2285 20.5546 18.977 20.8549 18.7918 21.1957C18.6067 21.5365 18.4916 21.9109 18.4534 22.2969C18.4101 22.6871 18.4447 23.0821 18.5551 23.4589C18.6655 23.8356 18.8496 24.1868 19.0966 24.492C19.3436 24.7971 19.6488 25.0503 19.9943 25.2367C20.3398 25.4231 20.7189 25.5392 21.1096 25.5781H21.4221C22.0895 25.6012 22.7449 25.3974 23.2815 25L27.7659 21.3438L29.1409 23.0313L29.344 23.25C29.7333 23.7458 30.2302 24.1465 30.7971 24.4219C30.8239 24.4667 30.8554 24.5086 30.8909 24.5469L31.0784 24.6719L37.7503 29.4844C38.05 29.6983 38.3048 29.9691 38.5003 30.2813C38.8285 30.7661 39.0026 31.3388 38.9998 31.9243C38.997 32.5098 38.8175 33.0808 38.4846 33.5625L38.5003 33.5469ZM39.0628 28.5313C38.9437 28.4153 38.8185 28.3058 38.6878 28.2031L33.719 24.625C34.7526 24.326 35.6519 23.6805 36.2659 22.7969C36.6512 22.2679 36.9107 21.6579 37.0244 21.0135C37.1381 20.369 37.1032 19.707 36.9221 19.0781L39.2815 21.375C39.7806 22.5088 40.0199 23.7397 39.9821 24.9779C39.9442 26.2161 39.6301 27.4301 39.0628 28.5313ZM43.6721 23.4375L32.1253 12.1875L35.9378 8.23438L47.4846 19.4844L43.6721 23.4375Z" fill="#95742F"/>
<path d="M7.40636 17.1873L5.43761 19.7029C5.37298 19.783 5.32474 19.8749 5.29565 19.9736C5.26656 20.0723 5.25719 20.1757 5.26807 20.278C5.27895 20.3803 5.30987 20.4794 5.35907 20.5698C5.40827 20.6601 5.47478 20.7399 5.5548 20.8045C5.63483 20.8691 5.7268 20.9174 5.82547 20.9465C5.92413 20.9755 6.02756 20.9849 6.12985 20.974C6.33644 20.9521 6.52583 20.8489 6.65636 20.6873L8.62511 18.2342C8.76394 18.0726 8.83288 17.8624 8.81676 17.65C8.80064 17.4375 8.70079 17.2402 8.53918 17.1014C8.45915 17.0326 8.36637 16.9803 8.26613 16.9474C8.1659 16.9146 8.06016 16.9017 7.95497 16.9097C7.74253 16.9258 7.54519 17.0257 7.40636 17.1873ZM34.5626 10.7342C34.4894 10.8068 34.4313 10.8932 34.3916 10.9884C34.3519 11.0836 34.3315 11.1857 34.3315 11.2889C34.3315 11.392 34.3519 11.4941 34.3916 11.5893C34.4313 11.6845 34.4894 11.7709 34.5626 11.8436L36.8439 14.0623C36.9959 14.1878 37.1899 14.2511 37.3867 14.2396C37.5835 14.2281 37.7687 14.1426 37.9051 14.0003C38.0416 13.8579 38.1191 13.6692 38.1222 13.4721C38.1254 13.2749 38.0538 13.0839 37.922 12.9373L35.6564 10.7498C35.5124 10.6046 35.3172 10.5216 35.1127 10.5186C34.9082 10.5157 34.7107 10.5931 34.5626 10.7342Z" fill="#95742F"/>
</svg>
