<svg width="50" height="50" viewBox="0 0 50 50" fill="none" xmlns="http://www.w3.org/2000/svg">
<path d="M42.398 44.0078L37.984 48.4453C37.859 48.5703 37.9684 48.8359 38.1246 48.8047L43.1246 47.8516L44.2887 47.6328L49.2887 46.6797C49.4449 46.6484 49.4449 46.3594 49.2887 46.2891L43.5543 43.7812L42.398 44.0078Z" fill="#95742F"/>
<path d="M40.7109 31.125C45.7891 30.1562 49.125 25.2578 48.1562 20.1797L45.3203 5.25781C45.3125 5.23438 45.2891 5.21875 45.2656 5.21875L26.9609 8.70313C26.9375 8.71094 26.9219 8.73438 26.9219 8.75781L29.7578 23.6797C30.7344 28.75 35.6328 32.0859 40.7109 31.125Z" fill="#95742F"/>
<path d="M28.5156 17.1012L29.7656 23.6793C30.7344 28.7574 35.6328 32.0934 40.7109 31.1246C45.7891 30.1559 49.125 25.2574 48.1562 20.1793L46.9062 13.6012C37.7656 10.023 34.2188 23.5855 28.5156 17.1012Z" fill="#051839"/>
<path d="M7.60156 44.0078L12.0156 48.4453C12.1406 48.5703 12.0312 48.8359 11.875 48.8047L6.875 47.8516L5.70312 47.6328L0.703125 46.6797C0.546875 46.6484 0.546875 46.3594 0.703125 46.2891L6.4375 43.7812L7.60156 44.0078Z" fill="#95742F"/>
<path d="M9.28845 31.125C4.21033 30.1562 0.874388 25.2578 1.84314 20.1797L4.67908 5.25781C4.67908 5.23438 4.70251 5.21875 4.72595 5.21875L23.0306 8.70313C23.0541 8.71094 23.0697 8.73438 23.0697 8.75781L20.2338 23.6719C19.265 28.75 14.3666 32.0859 9.28845 31.125Z" fill="#95742F"/>
<path d="M21.4838 17.1012L20.2338 23.6793C19.265 28.7574 14.3666 32.0934 9.28845 31.1246C4.21033 30.1559 0.874388 25.2574 1.84314 20.1793L3.09314 13.6012C12.2338 10.023 15.7806 23.5855 21.4838 17.1012Z" fill="#051839"/>
<path d="M41.1278 31.0458L39.9766 31.2646L42.3989 44.0052L43.5501 43.7863L41.1278 31.0458Z" fill="#95742F"/>
<path d="M8.86398 31.0422L6.44922 43.7842L7.6006 44.0024L10.0154 31.2604L8.86398 31.0422Z" fill="#95742F"/>
<path d="M25.0003 0.609375C24.68 0.609375 24.4144 0.875 24.4144 1.19531V4.82812C24.4144 5.14844 24.68 5.41406 25.0003 5.41406C25.3206 5.41406 25.5863 5.14844 25.5863 4.82812V1.19531C25.5863 0.867188 25.3206 0.609375 25.0003 0.609375ZM28.7738 2.50781C28.4847 2.36719 28.1331 2.48438 27.9925 2.77344L26.4769 5.85938C26.3363 6.14844 26.4534 6.5 26.7425 6.64062C26.8284 6.67969 26.9144 6.70312 27.0003 6.70312C27.2191 6.70312 27.4222 6.58594 27.5238 6.375L29.0394 3.28906C29.1878 3 29.0706 2.64844 28.7738 2.50781ZM22.0081 2.77344C21.8675 2.48438 21.5159 2.35938 21.2269 2.50781C20.9378 2.64844 20.8128 3 20.9613 3.28906L22.4769 6.375C22.5784 6.58594 22.7894 6.70312 23.0003 6.70312C23.0863 6.70312 23.1722 6.6875 23.2581 6.64062C23.5472 6.5 23.6722 6.14844 23.5238 5.85938L22.0081 2.77344Z" fill="#D8D7D7"/>
</svg>
