<svg width="50" height="50" viewBox="0 0 50 50" fill="none" xmlns="http://www.w3.org/2000/svg">
<path d="M41.2344 38.0352L45.1429 41.943C45.5235 42.3492 46.2651 42.1807 46.4323 41.6492C47.4203 38.8355 46.6947 35.6525 44.5837 33.5407C42.5596 31.5174 39.6726 30.7735 36.9512 31.5418L32.1226 26.7132C31.4021 25.9993 30.2951 27.0873 31.0179 27.8179C31.0179 27.8179 36.1814 32.9815 36.1814 32.9815C36.3928 33.1936 36.7094 33.2645 36.9917 33.1669C41.2355 31.5446 45.9606 35.4098 45.2634 39.8541C45.2635 39.854 42.021 36.6115 42.021 36.6115C41.8249 36.4139 41.5357 36.3346 41.2672 36.4094L37.869 37.3157C37.599 37.3875 37.3876 37.5988 37.3159 37.8689L36.4095 41.267C36.3371 41.5363 36.4149 41.8239 36.6117 42.0208L39.8542 45.2633C37.9522 45.5166 36.0441 44.878 34.6456 43.4788C32.9328 41.7652 32.366 39.2795 33.167 36.9915C33.2655 36.7084 33.1938 36.3933 32.9817 36.1812L27.8181 31.0177C27.5129 30.7125 27.0185 30.7125 26.7133 31.0177C26.4082 31.3228 26.4082 31.8172 26.7133 32.1224L31.542 36.951C30.0414 41.7782 34.0595 46.9946 39.0853 46.8676C39.9473 46.8677 40.8148 46.7251 41.6494 46.4321C41.9027 46.3436 42.0927 46.1307 42.1522 45.8683C42.2125 45.6066 42.1331 45.3327 41.9431 45.1427L38.0354 41.2342L38.709 38.7089L41.2344 38.0352ZM8.76519 11.9648L4.85666 8.05664C4.47262 7.65125 3.73516 7.81821 3.5673 8.35039C2.57928 11.1645 3.30484 14.3467 5.41589 16.4581C7.4392 18.4814 10.3246 19.2249 13.0483 18.4578L17.877 23.2864C18.5977 24.0006 19.7043 22.9119 18.9817 22.1817C18.9817 22.1817 13.8181 17.0177 13.8181 17.0177C13.6068 16.8053 13.2902 16.7343 13.0079 16.8327C8.76669 18.4583 4.03858 14.588 4.7362 10.1454C4.73611 10.1456 7.9786 13.388 7.9786 13.388C8.17544 13.5853 8.46307 13.6619 8.73238 13.5906L12.1305 12.6842C12.4006 12.6121 12.6119 12.4008 12.6836 12.1307L13.59 8.73221C13.6625 8.46289 13.5847 8.17564 13.3878 7.97842L10.1454 4.73555C14.5886 4.04057 18.4574 8.76373 16.8324 13.0074C16.7341 13.2904 16.8058 13.6055 17.0179 13.8176L22.1815 18.9815C22.4867 19.2867 22.981 19.2867 23.2862 18.9815C23.5914 18.6764 23.5914 18.182 23.2862 17.8768L18.4576 13.0478C20.2367 7.07583 14.1988 1.44796 8.35006 3.56721C8.09686 3.656 7.90688 3.86885 7.84737 4.13054C7.7871 4.39261 7.86644 4.66651 8.05642 4.85648L11.9642 8.76464L11.2905 11.2911L8.76519 11.9648Z" fill="white"/>
<path d="M4.75759 45.2423C6.91834 47.4971 10.8388 47.3831 12.8623 45.008C12.8623 45.0081 22.4686 34.2264 22.4686 34.2264L22.988 34.7458C23.2932 35.0509 23.7876 35.0509 24.0928 34.7458C24.3979 34.4406 24.3979 33.9462 24.0928 33.641L22.4357 31.9839L40.4021 14.0175L42.9328 13.5109C43.1487 13.4678 43.3364 13.3354 43.4493 13.147L46.7635 7.6229C46.9482 7.31544 46.8993 6.92176 46.646 6.66846L43.3318 3.35387C43.0785 3.10057 42.6856 3.05174 42.3774 3.23637L36.8529 6.55097C36.6645 6.66427 36.5317 6.85194 36.489 7.06748L35.9832 9.59776L18.016 27.5642L16.3589 25.9071C16.0537 25.602 15.5593 25.602 15.2541 25.9071C14.949 26.2123 14.949 26.7067 15.2541 27.0119L15.7735 27.5313L4.99183 37.1376C2.61776 39.1586 2.5023 43.0878 4.75759 45.2423ZM37.255 10.5354C37.3641 10.4263 37.4381 10.2875 37.4686 10.1364L37.9531 7.71291L42.6581 4.89004L45.1102 7.34174L42.2873 12.0468C41.6642 12.2149 39.6316 12.4576 39.4645 12.7452C39.4645 12.7453 21.3309 30.8792 21.3309 30.8792L19.1207 28.669L37.255 10.5354ZM6.03094 38.3049L16.8805 28.6382L21.3617 33.1194L11.695 43.9689C7.79916 48.0008 1.9907 42.2094 6.03094 38.3049Z" fill="white"/>
<path d="M9.17737 41.6039C9.37726 41.6039 9.57715 41.5276 9.72973 41.3751L16.3589 34.7459C17.0763 34.0234 15.9814 32.9199 15.2541 33.6412C15.2542 33.6411 8.62499 40.2703 8.62499 40.2703C8.12755 40.7338 8.50863 41.6281 9.17737 41.6039Z" fill="white"/>
</svg>
