<svg width="50" height="50" viewBox="0 0 50 50" fill="none" xmlns="http://www.w3.org/2000/svg">
<path d="M21.875 27.0833H7.29167C6.66667 27.0833 6.25 27.5 6.25 28.125V42.7083C6.25 43.3333 6.66667 43.75 7.29167 43.75H21.875C22.5 43.75 22.9167 43.3333 22.9167 42.7083V28.125C22.9167 27.5 22.5 27.0833 21.875 27.0833ZM20.8333 41.6667H8.33333V29.1667H20.8333V41.6667ZM21.875 6.25H7.29167C6.66667 6.25 6.25 6.66667 6.25 7.29167V21.875C6.25 22.5 6.66667 22.9167 7.29167 22.9167H21.875C22.5 22.9167 22.9167 22.5 22.9167 21.875V7.29167C22.9167 6.66667 22.5 6.25 21.875 6.25ZM20.8333 20.8333H8.33333V8.33333H20.8333V20.8333ZM42.7083 6.25H28.125C27.5 6.25 27.0833 6.66667 27.0833 7.29167V21.875C27.0833 22.5 27.5 22.9167 28.125 22.9167H42.7083C43.3333 22.9167 43.75 22.5 43.75 21.875V7.29167C43.75 6.66667 43.3333 6.25 42.7083 6.25ZM41.6667 20.8333H29.1667V8.33333H41.6667V20.8333ZM42.7083 34.375H36.4583V28.125C36.4583 27.5 36.0417 27.0833 35.4167 27.0833C34.7917 27.0833 34.375 27.5 34.375 28.125V34.375H28.125C27.5 34.375 27.0833 34.7917 27.0833 35.4167C27.0833 36.0417 27.5 36.4583 28.125 36.4583H34.375V42.7083C34.375 43.3333 34.7917 43.75 35.4167 43.75C36.0417 43.75 36.4583 43.3333 36.4583 42.7083V36.4583H42.7083C43.3333 36.4583 43.75 36.0417 43.75 35.4167C43.75 34.7917 43.3333 34.375 42.7083 34.375Z" fill="white"/>
</svg>
