<svg width="50" height="50" viewBox="0 0 50 50" fill="none" xmlns="http://www.w3.org/2000/svg">
<path d="M41.2344 38.0357L45.1429 41.9435C45.5235 42.3497 46.2651 42.1812 46.4323 41.6497C47.4203 38.836 46.6947 35.653 44.5837 33.5412C42.5596 31.5179 39.6726 30.774 36.9512 31.5423L32.1226 26.7137C31.4021 25.9998 30.2951 27.0878 31.0179 27.8184C31.0179 27.8184 36.1814 32.982 36.1814 32.982C36.3928 33.1941 36.7094 33.265 36.9917 33.1674C41.2355 31.5451 45.9606 35.4103 45.2634 39.8546C45.2635 39.8545 42.021 36.612 42.021 36.612C41.8249 36.4144 41.5357 36.3351 41.2672 36.4099L37.869 37.3162C37.599 37.3879 37.3876 37.5993 37.3159 37.8694L36.4095 41.2675C36.3371 41.5368 36.4149 41.8244 36.6117 42.0213L39.8542 45.2638C37.9522 45.5171 36.0441 44.8785 34.6456 43.4792C32.9328 41.7657 32.366 39.28 33.167 36.992C33.2655 36.7089 33.1938 36.3938 32.9817 36.1817L27.8181 31.0182C27.5129 30.713 27.0185 30.713 26.7133 31.0182C26.4082 31.3233 26.4082 31.8177 26.7133 32.1229L31.542 36.9515C30.0414 41.7787 34.0595 46.995 39.0853 46.8681C39.9473 46.8682 40.8148 46.7255 41.6494 46.4326C41.9027 46.3441 42.0927 46.1312 42.1522 45.8688C42.2125 45.6071 42.1331 45.3332 41.9431 45.1432L38.0354 41.2347L38.709 38.7093L41.2344 38.0357ZM8.76519 11.9653L4.85666 8.05712C4.47262 7.65173 3.73516 7.8187 3.5673 8.35087C2.57928 11.165 3.30484 14.3472 5.41589 16.4586C7.4392 18.4819 10.3246 19.2254 13.0483 18.4583L17.877 23.2869C18.5977 24.0011 19.7043 22.9124 18.9817 22.1821C18.9817 22.1822 13.8181 17.0182 13.8181 17.0182C13.6068 16.8057 13.2902 16.7348 13.0079 16.8332C8.76669 18.4588 4.03858 14.5885 4.7362 10.1459C4.73611 10.146 7.9786 13.3885 7.9786 13.3885C8.17544 13.5858 8.46307 13.6624 8.73238 13.5911L12.1305 12.6847C12.4006 12.6126 12.6119 12.4013 12.6836 12.1312L13.59 8.73269C13.6625 8.46337 13.5847 8.17613 13.3878 7.97891L10.1454 4.73604C14.5886 4.04106 18.4574 8.76422 16.8324 13.0079C16.7341 13.2909 16.8058 13.606 17.0179 13.8181L22.1815 18.982C22.4867 19.2872 22.981 19.2872 23.2862 18.982C23.5914 18.6769 23.5914 18.1825 23.2862 17.8773L18.4576 13.0483C20.2367 7.07632 14.1988 1.44844 8.35006 3.5677C8.09686 3.65648 7.90688 3.86934 7.84737 4.13103C7.7871 4.3931 7.86644 4.667 8.05642 4.85697L11.9642 8.76512L11.2905 11.2916L8.76519 11.9653Z" fill="white"/>
<path d="M4.75759 45.2423C6.91834 47.4971 10.8388 47.3831 12.8623 45.008C12.8623 45.0081 22.4686 34.2264 22.4686 34.2264L22.988 34.7458C23.2932 35.0509 23.7876 35.0509 24.0928 34.7458C24.3979 34.4406 24.3979 33.9462 24.0928 33.641L22.4357 31.9839L40.4021 14.0175L42.9328 13.5109C43.1487 13.4678 43.3364 13.3354 43.4493 13.147L46.7635 7.6229C46.9482 7.31544 46.8993 6.92176 46.646 6.66846L43.3318 3.35387C43.0785 3.10057 42.6856 3.05174 42.3774 3.23637L36.8529 6.55097C36.6645 6.66427 36.5317 6.85194 36.489 7.06748L35.9832 9.59776L18.016 27.5642L16.3589 25.9071C16.0537 25.602 15.5593 25.602 15.2541 25.9071C14.949 26.2123 14.949 26.7067 15.2541 27.0119L15.7735 27.5313L4.99183 37.1376C2.61776 39.1586 2.5023 43.0878 4.75759 45.2423ZM37.255 10.5354C37.3641 10.4263 37.4381 10.2875 37.4686 10.1364L37.9531 7.71291L42.6581 4.89004L45.1102 7.34174L42.2873 12.0468C41.6642 12.2149 39.6316 12.4576 39.4645 12.7452C39.4645 12.7453 21.3309 30.8792 21.3309 30.8792L19.1207 28.669L37.255 10.5354ZM6.03094 38.3049L16.8805 28.6382L21.3617 33.1194L11.695 43.9689C7.79916 48.0008 1.9907 42.2094 6.03094 38.3049Z" fill="white"/>
<path d="M9.17737 41.6039C9.37726 41.6039 9.57715 41.5276 9.72973 41.3751L16.3589 34.7459C17.0763 34.0234 15.9814 32.9199 15.2541 33.6412C15.2542 33.6411 8.62499 40.2703 8.62499 40.2703C8.12755 40.7338 8.50863 41.6281 9.17737 41.6039Z" fill="white"/>
</svg>
